<svg xmlns="http://www.w3.org/2000/svg" xmlns:xlink="http://www.w3.org/1999/xlink" width="422.697" height="363.19" viewBox="0 0 422.697 363.19">
  <defs>
    <linearGradient id="linear-gradient" x1="1.5" y1="1" x2="-0.248" y2="1" gradientUnits="objectBoundingBox">
      <stop offset="0" stop-color="#00bbf5"/>
      <stop offset="0.408" stop-color="#2dc1b5"/>
      <stop offset="1" stop-color="#abd202"/>
    </linearGradient>
    <linearGradient id="linear-gradient-17" x1="3.01" y1="0.5" x2="-6.267" y2="0.5" gradientUnits="objectBoundingBox">
      <stop offset="0" stop-color="#00bbf5"/>
      <stop offset="1" stop-color="#abd202"/>
    </linearGradient>
  </defs>
  <g id="Group_439" data-name="Group 439" transform="translate(-42.547 -116.742)">
    <g id="Group_376" data-name="Group 376" transform="translate(0 50)">
      <g id="Group_368" data-name="Group 368" transform="translate(249.106 249.871)">
        <g id="Group_352" data-name="Group 352" transform="translate(51.734)">
          <path id="Path_2986" data-name="Path 2986" d="M-5370.169-413.353c-4.435,0-6.677-1.738-8.845-3.419s-4.213-3.267-8.4-3.267-6.236,1.587-8.4,3.267-4.409,3.419-8.845,3.419-6.676-1.738-8.843-3.419-4.213-3.267-8.4-3.267-6.232,1.587-8.4,3.267-4.41,3.419-8.844,3.419-6.677-1.738-8.844-3.419-4.213-3.267-8.4-3.267-6.233,1.587-8.4,3.267-4.408,3.419-8.843,3.419-6.677-1.738-8.845-3.419-4.214-3.267-8.4-3.267-6.234,1.587-8.4,3.267-4.41,3.419-8.844,3.419v-.727c4.188,0,6.234-1.587,8.4-3.267s4.41-3.419,8.844-3.419,6.678,1.738,8.846,3.419,4.212,3.267,8.4,3.267,6.233-1.587,8.4-3.267,4.408-3.419,8.845-3.419,6.676,1.738,8.843,3.419,4.213,3.267,8.4,3.267,6.233-1.587,8.4-3.267,4.409-3.419,8.843-3.419,6.679,1.738,8.845,3.419,4.214,3.267,8.4,3.267,6.234-1.587,8.4-3.267,4.409-3.419,8.845-3.419,6.677,1.738,8.846,3.419,4.213,3.267,8.4,3.267Z" transform="translate(5508.129 420.766)" fill="url(#linear-gradient)"/>
        </g>
        <g id="Group_353" data-name="Group 353" transform="translate(51.734 7.579)">
          <path id="Path_2987" data-name="Path 2987" d="M-5370.169-402.931c-4.435,0-6.677-1.739-8.845-3.419s-4.213-3.267-8.4-3.267-6.236,1.587-8.4,3.267-4.409,3.419-8.845,3.419-6.676-1.739-8.843-3.419-4.213-3.267-8.4-3.267-6.232,1.587-8.4,3.267-4.41,3.419-8.844,3.419-6.677-1.739-8.844-3.419-4.213-3.267-8.4-3.267-6.233,1.587-8.4,3.267-4.408,3.419-8.843,3.419-6.677-1.739-8.845-3.419-4.214-3.267-8.4-3.267-6.234,1.587-8.4,3.267-4.41,3.419-8.844,3.419v-.727c4.188,0,6.234-1.588,8.4-3.267s4.41-3.419,8.844-3.419,6.678,1.738,8.846,3.419,4.212,3.267,8.4,3.267,6.233-1.588,8.4-3.267,4.408-3.419,8.845-3.419,6.676,1.738,8.843,3.419,4.213,3.267,8.4,3.267,6.233-1.588,8.4-3.267,4.409-3.419,8.843-3.419,6.679,1.738,8.845,3.419,4.214,3.267,8.4,3.267,6.234-1.588,8.4-3.267,4.409-3.419,8.845-3.419,6.677,1.738,8.846,3.419,4.213,3.267,8.4,3.267Z" transform="translate(5508.129 410.344)" fill="url(#linear-gradient)"/>
        </g>
        <g id="Group_354" data-name="Group 354" transform="translate(51.734 15.158)">
          <path id="Path_2988" data-name="Path 2988" d="M-5370.169-392.509c-4.435,0-6.677-1.738-8.845-3.419s-4.213-3.267-8.4-3.267-6.236,1.587-8.4,3.267-4.409,3.419-8.845,3.419-6.676-1.738-8.843-3.419-4.213-3.267-8.4-3.267-6.232,1.587-8.4,3.267-4.41,3.419-8.844,3.419-6.677-1.738-8.844-3.419-4.213-3.267-8.4-3.267-6.233,1.587-8.4,3.267-4.408,3.419-8.843,3.419-6.677-1.738-8.845-3.419-4.214-3.267-8.4-3.267-6.234,1.587-8.4,3.267-4.41,3.419-8.844,3.419v-.727c4.188,0,6.234-1.587,8.4-3.267s4.41-3.419,8.844-3.419,6.678,1.738,8.846,3.419,4.212,3.267,8.4,3.267,6.233-1.587,8.4-3.266,4.408-3.419,8.845-3.419,6.676,1.738,8.843,3.419,4.213,3.267,8.4,3.267,6.233-1.587,8.4-3.267,4.409-3.419,8.843-3.419,6.679,1.738,8.845,3.419,4.214,3.266,8.4,3.266,6.234-1.587,8.4-3.267,4.409-3.419,8.845-3.419,6.677,1.738,8.846,3.419,4.213,3.267,8.4,3.267Z" transform="translate(5508.129 399.922)" fill="url(#linear-gradient)"/>
        </g>
        <g id="Group_355" data-name="Group 355" transform="translate(51.734 22.737)">
          <path id="Path_2989" data-name="Path 2989" d="M-5370.169-382.087c-4.435,0-6.677-1.738-8.845-3.419s-4.213-3.267-8.4-3.267-6.236,1.588-8.4,3.267-4.409,3.419-8.845,3.419-6.676-1.738-8.843-3.419-4.213-3.267-8.4-3.267-6.232,1.588-8.4,3.267-4.41,3.419-8.844,3.419-6.677-1.738-8.844-3.419-4.213-3.267-8.4-3.267-6.233,1.588-8.4,3.267-4.408,3.419-8.843,3.419-6.677-1.738-8.845-3.419-4.214-3.267-8.4-3.267-6.234,1.588-8.4,3.267-4.41,3.419-8.844,3.419v-.727c4.188,0,6.234-1.587,8.4-3.267s4.41-3.419,8.844-3.419,6.678,1.739,8.846,3.419,4.212,3.267,8.4,3.267,6.233-1.587,8.4-3.267,4.408-3.419,8.845-3.419,6.676,1.739,8.843,3.419,4.213,3.267,8.4,3.267,6.233-1.587,8.4-3.267,4.409-3.419,8.843-3.419,6.679,1.739,8.845,3.419,4.214,3.267,8.4,3.267,6.234-1.587,8.4-3.267,4.409-3.419,8.845-3.419,6.677,1.739,8.846,3.419,4.213,3.267,8.4,3.267Z" transform="translate(5508.129 389.5)" fill="url(#linear-gradient)"/>
        </g>
        <g id="Group_356" data-name="Group 356" transform="translate(51.734 30.317)">
          <path id="Path_2990" data-name="Path 2990" d="M-5370.169-371.664c-4.435,0-6.677-1.738-8.845-3.419s-4.213-3.266-8.4-3.266-6.236,1.587-8.4,3.267-4.409,3.419-8.845,3.419-6.676-1.738-8.843-3.419-4.213-3.267-8.4-3.267-6.232,1.586-8.4,3.266-4.41,3.419-8.844,3.419-6.677-1.738-8.844-3.419-4.213-3.266-8.4-3.266-6.233,1.587-8.4,3.267-4.408,3.419-8.843,3.419-6.677-1.738-8.845-3.419-4.214-3.266-8.4-3.266-6.234,1.586-8.4,3.266-4.41,3.419-8.844,3.419v-.727c4.188,0,6.234-1.587,8.4-3.267s4.41-3.419,8.844-3.419,6.677,1.737,8.846,3.419,4.212,3.267,8.4,3.267,6.233-1.587,8.4-3.267,4.408-3.419,8.845-3.419,6.676,1.737,8.843,3.419,4.213,3.267,8.4,3.267,6.233-1.587,8.4-3.267,4.409-3.419,8.843-3.419,6.679,1.738,8.845,3.419,4.214,3.267,8.4,3.267,6.234-1.587,8.4-3.267,4.409-3.419,8.845-3.419,6.677,1.737,8.846,3.419,4.213,3.267,8.4,3.267Z" transform="translate(5508.129 379.077)" fill="url(#linear-gradient)"/>
        </g>
        <g id="Group_357" data-name="Group 357" transform="translate(34.489 37.896)">
          <path id="Path_2991" data-name="Path 2991" d="M-5376.68-361.242c-4.435,0-6.677-1.738-8.846-3.419s-4.213-3.267-8.4-3.267-6.235,1.587-8.4,3.267-4.409,3.419-8.846,3.419-6.676-1.738-8.843-3.419-4.213-3.267-8.4-3.267-6.233,1.587-8.4,3.267-4.409,3.419-8.844,3.419-6.678-1.738-8.844-3.419-4.213-3.267-8.4-3.267-6.234,1.587-8.4,3.267-4.408,3.419-8.843,3.419-6.677-1.738-8.845-3.419-4.213-3.267-8.4-3.267-6.233,1.587-8.4,3.267-4.409,3.419-8.844,3.419-6.677-1.738-8.845-3.419-4.214-3.267-8.4-3.267v-.727c4.436,0,6.677,1.738,8.845,3.419s4.212,3.267,8.4,3.267,6.233-1.587,8.4-3.267,4.409-3.419,8.844-3.419,6.676,1.738,8.845,3.419,4.213,3.267,8.4,3.267,6.233-1.587,8.4-3.267,4.409-3.419,8.845-3.419,6.676,1.738,8.843,3.419,4.213,3.267,8.4,3.267,6.233-1.587,8.4-3.267,4.409-3.419,8.844-3.419,6.678,1.738,8.845,3.419,4.213,3.267,8.4,3.267,6.235-1.587,8.4-3.267,4.409-3.419,8.845-3.419,6.677,1.738,8.846,3.419,4.213,3.267,8.4,3.267Z" transform="translate(5531.885 368.655)" fill="url(#linear-gradient)"/>
        </g>
        <g id="Group_358" data-name="Group 358" transform="translate(34.489 45.476)">
          <path id="Path_2992" data-name="Path 2992" d="M-5376.68-350.82c-4.435,0-6.677-1.738-8.846-3.419s-4.213-3.267-8.4-3.267-6.235,1.587-8.4,3.267-4.409,3.419-8.846,3.419-6.676-1.738-8.843-3.419-4.213-3.267-8.4-3.267-6.233,1.587-8.4,3.267-4.409,3.419-8.844,3.419-6.678-1.738-8.844-3.419-4.213-3.267-8.4-3.267-6.234,1.587-8.4,3.267-4.408,3.419-8.843,3.419-6.677-1.738-8.845-3.419-4.213-3.267-8.4-3.267-6.233,1.587-8.4,3.267-4.409,3.419-8.844,3.419-6.677-1.738-8.845-3.419-4.214-3.267-8.4-3.267v-.727c4.436,0,6.677,1.738,8.845,3.419s4.212,3.267,8.4,3.267,6.233-1.587,8.4-3.267,4.409-3.419,8.844-3.419,6.676,1.738,8.845,3.419,4.213,3.267,8.4,3.267,6.233-1.587,8.4-3.266,4.409-3.419,8.845-3.419,6.676,1.738,8.843,3.419,4.213,3.267,8.4,3.267,6.233-1.587,8.4-3.267,4.409-3.419,8.844-3.419,6.678,1.738,8.845,3.419,4.213,3.266,8.4,3.266,6.235-1.587,8.4-3.267,4.409-3.419,8.845-3.419,6.677,1.738,8.846,3.419,4.213,3.267,8.4,3.267Z" transform="translate(5531.885 358.233)" fill="url(#linear-gradient)"/>
        </g>
        <g id="Group_359" data-name="Group 359" transform="translate(34.489 53.055)">
          <path id="Path_2993" data-name="Path 2993" d="M-5411.174-340.4c-4.434,0-6.676-1.738-8.843-3.419s-4.213-3.267-8.4-3.267-6.233,1.587-8.4,3.267-4.41,3.419-8.844,3.419-6.678-1.738-8.844-3.419-4.213-3.267-8.4-3.267-6.234,1.587-8.4,3.267-4.408,3.419-8.843,3.419-6.677-1.738-8.845-3.419-4.213-3.267-8.4-3.267-6.233,1.587-8.4,3.267-4.409,3.419-8.844,3.419-6.677-1.738-8.845-3.419-4.214-3.267-8.4-3.267v-.727c4.436,0,6.676,1.738,8.845,3.419s4.212,3.267,8.4,3.267,6.233-1.587,8.4-3.267,4.409-3.419,8.844-3.419,6.676,1.738,8.845,3.419,4.213,3.267,8.4,3.267,6.233-1.587,8.4-3.266,4.409-3.419,8.845-3.419,6.676,1.738,8.843,3.419,4.213,3.267,8.4,3.267,6.233-1.587,8.4-3.267,4.409-3.419,8.844-3.419,6.678,1.738,8.845,3.419,4.213,3.266,8.4,3.266,6.235-1.587,8.4-3.267,4.409-3.419,8.845-3.419v.727c-4.188,0-6.235,1.587-8.4,3.267S-5406.737-340.4-5411.174-340.4Z" transform="translate(5531.885 347.811)" fill="url(#linear-gradient)"/>
        </g>
        <g id="Group_360" data-name="Group 360" transform="translate(17.244 60.634)">
          <path id="Path_2994" data-name="Path 2994" d="M-5417.685-329.976c-4.435,0-6.676-1.739-8.843-3.419s-4.213-3.267-8.4-3.267-6.232,1.587-8.4,3.267-4.41,3.419-8.844,3.419-6.678-1.739-8.844-3.419-4.213-3.267-8.4-3.267-6.234,1.587-8.4,3.267-4.408,3.419-8.843,3.419-6.677-1.739-8.845-3.419-4.213-3.267-8.4-3.267-6.233,1.587-8.4,3.267-4.409,3.419-8.844,3.419-6.676-1.739-8.845-3.419-4.213-3.267-8.4-3.267-6.233,1.587-8.4,3.267-4.408,3.419-8.845,3.419v-.727c4.188,0,6.234-1.587,8.4-3.267s4.409-3.419,8.844-3.419,6.676,1.738,8.845,3.419,4.213,3.267,8.4,3.267,6.233-1.587,8.4-3.267,4.409-3.419,8.844-3.419,6.677,1.738,8.845,3.419,4.212,3.267,8.4,3.267,6.232-1.587,8.4-3.267,4.409-3.419,8.845-3.419,6.677,1.738,8.844,3.419,4.213,3.267,8.4,3.267,6.232-1.587,8.4-3.267,4.41-3.419,8.843-3.419,6.679,1.738,8.846,3.419,4.213,3.267,8.4,3.267Z" transform="translate(5555.641 337.389)" fill="url(#linear-gradient)"/>
        </g>
        <g id="Group_361" data-name="Group 361" transform="translate(0 68.214)">
          <path id="Path_2995" data-name="Path 2995" d="M-5424.194-319.553c-4.435,0-6.676-1.738-8.844-3.419s-4.214-3.267-8.4-3.267-6.233,1.587-8.4,3.267-4.409,3.419-8.845,3.419-6.677-1.738-8.844-3.419-4.214-3.267-8.4-3.267-6.234,1.587-8.4,3.267-4.409,3.419-8.845,3.419-6.675-1.738-8.844-3.419-4.214-3.267-8.4-3.267-6.234,1.587-8.4,3.267-4.41,3.419-8.844,3.419-6.678-1.738-8.846-3.419-4.212-3.267-8.4-3.267-6.234,1.587-8.4,3.266-4.408,3.419-8.846,3.419-6.675-1.738-8.842-3.419-4.214-3.267-8.4-3.267v-.727c4.436,0,6.678,1.738,8.844,3.419s4.214,3.267,8.4,3.267,6.234-1.587,8.4-3.267,4.409-3.419,8.845-3.419,6.676,1.738,8.844,3.419,4.212,3.267,8.4,3.267,6.233-1.587,8.4-3.267,4.409-3.419,8.844-3.419,6.676,1.738,8.845,3.419,4.213,3.267,8.4,3.267,6.233-1.587,8.4-3.267,4.407-3.419,8.845-3.419,6.676,1.738,8.843,3.419,4.213,3.267,8.4,3.267,6.233-1.587,8.4-3.267,4.409-3.419,8.845-3.419,6.678,1.738,8.844,3.419,4.214,3.267,8.4,3.267Z" transform="translate(5579.395 326.966)" fill="url(#linear-gradient)"/>
        </g>
        <g id="Group_362" data-name="Group 362" transform="translate(0 75.792)">
          <path id="Path_2996" data-name="Path 2996" d="M-5424.194-309.132c-4.435,0-6.676-1.738-8.844-3.419s-4.214-3.267-8.4-3.267-6.233,1.588-8.4,3.267-4.409,3.419-8.845,3.419-6.677-1.738-8.844-3.419-4.214-3.267-8.4-3.267-6.234,1.588-8.4,3.267-4.409,3.419-8.845,3.419-6.675-1.738-8.844-3.419-4.214-3.267-8.4-3.267-6.234,1.588-8.4,3.267-4.41,3.419-8.844,3.419-6.678-1.738-8.846-3.419-4.212-3.267-8.4-3.267-6.234,1.588-8.4,3.267-4.408,3.419-8.846,3.419-6.675-1.738-8.842-3.419-4.214-3.267-8.4-3.267v-.727c4.436,0,6.678,1.739,8.844,3.419s4.214,3.267,8.4,3.267,6.234-1.587,8.4-3.267,4.409-3.419,8.845-3.419,6.676,1.739,8.844,3.419,4.212,3.267,8.4,3.267,6.233-1.587,8.4-3.267,4.409-3.419,8.844-3.419,6.676,1.739,8.845,3.419,4.213,3.267,8.4,3.267,6.233-1.587,8.4-3.267,4.407-3.419,8.845-3.419,6.676,1.739,8.843,3.419,4.213,3.267,8.4,3.267,6.233-1.587,8.4-3.267,4.409-3.419,8.845-3.419,6.678,1.739,8.844,3.419,4.214,3.267,8.4,3.267Z" transform="translate(5579.395 316.545)" fill="url(#linear-gradient)"/>
        </g>
        <g id="Group_363" data-name="Group 363" transform="translate(0 83.372)">
          <path id="Path_2997" data-name="Path 2997" d="M-5458.684-298.709c-4.436,0-6.677-1.738-8.844-3.419s-4.214-3.267-8.4-3.267-6.234,1.587-8.4,3.267-4.409,3.419-8.845,3.419-6.677-1.738-8.844-3.419-4.214-3.267-8.4-3.267-6.234,1.587-8.4,3.267-4.41,3.419-8.844,3.419-6.678-1.738-8.846-3.419-4.212-3.267-8.4-3.267-6.234,1.587-8.4,3.267-4.408,3.419-8.846,3.419-6.675-1.738-8.842-3.419-4.214-3.267-8.4-3.267v-.727c4.436,0,6.678,1.738,8.844,3.419s4.214,3.267,8.4,3.267,6.234-1.587,8.4-3.267,4.409-3.419,8.845-3.419,6.676,1.738,8.844,3.419,4.212,3.267,8.4,3.267,6.233-1.587,8.4-3.267,4.409-3.419,8.844-3.419,6.676,1.738,8.845,3.419,4.213,3.267,8.4,3.267,6.233-1.587,8.4-3.267,4.407-3.419,8.845-3.419,6.676,1.738,8.843,3.419,4.213,3.267,8.4,3.267,6.233-1.587,8.4-3.267,4.409-3.419,8.845-3.419v.727c-4.187,0-6.233,1.587-8.4,3.267S-5454.249-298.709-5458.684-298.709Z" transform="translate(5579.395 306.122)" fill="url(#linear-gradient)"/>
        </g>
        <g id="Group_364" data-name="Group 364" transform="translate(0 90.951)">
          <path id="Path_2998" data-name="Path 2998" d="M-5458.684-288.287c-4.436,0-6.677-1.738-8.844-3.419s-4.214-3.267-8.4-3.267-6.234,1.587-8.4,3.267-4.409,3.419-8.845,3.419-6.675-1.738-8.844-3.419-4.214-3.267-8.4-3.267-6.234,1.587-8.4,3.267-4.41,3.419-8.844,3.419-6.678-1.738-8.846-3.419-4.212-3.267-8.4-3.267-6.234,1.587-8.4,3.267-4.408,3.419-8.846,3.419-6.675-1.738-8.842-3.419-4.214-3.267-8.4-3.267v-.727c4.436,0,6.678,1.738,8.844,3.419s4.214,3.267,8.4,3.267,6.234-1.587,8.4-3.267,4.409-3.419,8.845-3.419,6.676,1.738,8.844,3.419,4.212,3.267,8.4,3.267,6.233-1.587,8.4-3.267,4.409-3.419,8.844-3.419,6.676,1.738,8.845,3.419,4.213,3.267,8.4,3.267,6.233-1.587,8.4-3.267,4.407-3.419,8.845-3.419,6.676,1.738,8.843,3.419,4.213,3.267,8.4,3.267,6.233-1.587,8.4-3.267,4.409-3.419,8.845-3.419v.727c-4.187,0-6.233,1.587-8.4,3.267S-5454.249-288.287-5458.684-288.287Z" transform="translate(5579.395 295.7)" fill="url(#linear-gradient)"/>
        </g>
        <g id="Group_365" data-name="Group 365" transform="translate(0 98.53)">
          <path id="Path_2999" data-name="Path 2999" d="M-5458.684-277.865c-4.436,0-6.677-1.738-8.844-3.419s-4.214-3.267-8.4-3.267-6.234,1.587-8.4,3.267-4.409,3.419-8.845,3.419-6.677-1.738-8.844-3.419-4.214-3.267-8.4-3.267-6.234,1.587-8.4,3.267-4.41,3.419-8.844,3.419-6.678-1.738-8.846-3.419-4.212-3.267-8.4-3.267-6.234,1.587-8.4,3.267-4.408,3.419-8.846,3.419-6.675-1.738-8.842-3.419-4.214-3.267-8.4-3.267v-.727c4.436,0,6.678,1.738,8.844,3.419s4.214,3.267,8.4,3.267,6.234-1.587,8.4-3.267,4.409-3.419,8.845-3.419,6.676,1.738,8.844,3.419,4.212,3.267,8.4,3.267,6.233-1.587,8.4-3.267,4.409-3.419,8.844-3.419,6.676,1.738,8.845,3.419,4.213,3.267,8.4,3.267,6.233-1.587,8.4-3.266,4.407-3.419,8.845-3.419,6.676,1.738,8.843,3.419,4.213,3.267,8.4,3.267,6.233-1.587,8.4-3.267,4.409-3.419,8.845-3.419v.727c-4.187,0-6.233,1.587-8.4,3.267S-5454.249-277.865-5458.684-277.865Z" transform="translate(5579.395 285.278)" fill="url(#linear-gradient)"/>
        </g>
        <g id="Group_366" data-name="Group 366" transform="translate(0 106.109)">
          <path id="Path_3000" data-name="Path 3000" d="M-5458.684-267.443c-4.436,0-6.677-1.738-8.844-3.419s-4.214-3.267-8.4-3.267-6.234,1.587-8.4,3.267-4.409,3.419-8.845,3.419-6.677-1.738-8.844-3.419-4.214-3.267-8.4-3.267-6.234,1.587-8.4,3.267-4.41,3.419-8.844,3.419-6.678-1.738-8.846-3.419-4.212-3.267-8.4-3.267-6.234,1.587-8.4,3.267-4.408,3.419-8.846,3.419-6.675-1.738-8.842-3.419-4.214-3.267-8.4-3.267v-.727c4.436,0,6.678,1.739,8.844,3.419s4.214,3.267,8.4,3.267,6.234-1.587,8.4-3.267,4.409-3.419,8.845-3.419,6.676,1.739,8.844,3.419,4.212,3.267,8.4,3.267,6.233-1.587,8.4-3.267,4.409-3.419,8.844-3.419,6.676,1.739,8.845,3.419,4.213,3.267,8.4,3.267,6.233-1.587,8.4-3.267,4.407-3.419,8.845-3.419,6.676,1.739,8.843,3.419,4.213,3.267,8.4,3.267,6.233-1.587,8.4-3.267,4.409-3.419,8.845-3.419v.727c-4.187,0-6.233,1.587-8.4,3.267S-5454.249-267.443-5458.684-267.443Z" transform="translate(5579.395 274.856)" fill="url(#linear-gradient)"/>
        </g>
        <g id="Group_367" data-name="Group 367" transform="translate(0 113.689)">
          <path id="Path_3001" data-name="Path 3001" d="M-5458.684-257.021c-4.436,0-6.677-1.738-8.844-3.419s-4.214-3.267-8.4-3.267-6.234,1.587-8.4,3.267-4.409,3.419-8.845,3.419-6.677-1.738-8.844-3.419-4.214-3.267-8.4-3.267-6.234,1.587-8.4,3.267-4.41,3.419-8.844,3.419-6.678-1.738-8.846-3.419-4.212-3.267-8.4-3.267-6.234,1.587-8.4,3.267-4.408,3.419-8.846,3.419-6.675-1.738-8.842-3.419-4.214-3.267-8.4-3.267v-.727c4.436,0,6.678,1.738,8.844,3.419s4.214,3.267,8.4,3.267,6.234-1.587,8.4-3.267,4.409-3.419,8.845-3.419,6.676,1.738,8.844,3.419,4.212,3.267,8.4,3.267,6.233-1.587,8.4-3.267,4.409-3.419,8.844-3.419,6.676,1.738,8.845,3.419,4.213,3.267,8.4,3.267,6.233-1.587,8.4-3.267,4.407-3.419,8.845-3.419,6.676,1.738,8.843,3.419,4.213,3.267,8.4,3.267,6.233-1.587,8.4-3.267,4.409-3.419,8.845-3.419v.727c-4.187,0-6.233,1.587-8.4,3.267S-5454.249-257.021-5458.684-257.021Z" transform="translate(5579.395 264.434)" fill="url(#linear-gradient)"/>
        </g>
      </g>
      <ellipse id="Ellipse_30" data-name="Ellipse 30" cx="193.203" cy="89.4" rx="193.203" ry="89.4" transform="translate(43.336 279.711) rotate(-33.306)" fill="none" stroke="#1a83ad" stroke-width="1.14"/>
      <g id="Group_316" data-name="Group 316" transform="translate(308.329 101.973)">
        <path id="Path_1003" data-name="Path 1003" d="M-5475.7-590.1l-3.419-17.021,3.419-17.021,3.419,17.021Z" transform="translate(5492.688 624.14)" fill="url(#linear-gradient-17)"/>
        <path id="Path_1004" data-name="Path 1004" d="M-5497.812-602.019l16.991-3.425,16.991,3.425-16.991,3.425Z" transform="translate(5497.812 619.04)" fill="url(#linear-gradient-17)"/>
      </g>
    </g>
  </g>
</svg>
