<svg version="1.2" xmlns="http://www.w3.org/2000/svg" viewBox="0 0 270 69" width="270" height="69">
	<title>logo-2-svg</title>
	<defs>
		<clipPath clipPathUnits="userSpaceOnUse" id="cp1">
			<path d="m0 0h270v68.66h-270z"/>
		</clipPath>
		<clipPath clipPathUnits="userSpaceOnUse" id="cp2">
			<path d="m200.17 13.17v39.95h-7.73v-31.17h-6.29l5.38-8.78h0.91z"/>
		</clipPath>
		<clipPath clipPathUnits="userSpaceOnUse" id="cp3">
			<path d="m218.93 24.93c0 0 3.77 5.52 3.77 12.49 0 3.34-1.62 6.72-3.77 8.19 0 0 3.56-4.52 0-12.37-3.56 7.85 0 12.37 0 12.37-2.15-1.47-3.77-4.85-3.77-8.19 0-6.97 3.77-12.49 3.77-12.49z"/>
		</clipPath>
		<clipPath clipPathUnits="userSpaceOnUse" id="cp4">
			<path d="m0 0h270v68.66h-270z"/>
		</clipPath>
		<clipPath clipPathUnits="userSpaceOnUse" id="cp5">
			<path d="m213.15 13.6c3.9-0.85 7.97-0.51 11.68 0.97 3.71 1.48 6.89 4.05 9.13 7.35 2.24 3.31 3.43 7.22 3.43 11.21 0 2.53 0.77 5 2.19 7.1 1.43 2.09 3.45 3.7 5.8 4.63 2.36 0.92 4.93 1.12 7.4 0.56 2.47-0.56 4.71-1.86 6.43-3.71l5.23 5.23c-2.76 2.89-6.32 4.88-10.22 5.73-3.9 0.84-7.96 0.5-11.67-0.98-3.7-1.49-6.88-4.05-9.12-7.36-2.23-3.3-3.43-7.21-3.43-11.2 0-2.53-0.76-5.01-2.19-7.1-1.43-2.09-3.45-3.7-5.81-4.63-2.36-0.92-4.94-1.11-7.41-0.55-2.47 0.57-4.71 1.87-6.43 3.73l-5.23-5.23c2.76-2.9 6.32-4.9 10.22-5.75z"/>
		</clipPath>
		<clipPath clipPathUnits="userSpaceOnUse" id="cp6">
			<path d="m0 0h270v68.66h-270z"/>
		</clipPath>
	</defs>
	<style>
		.s0 { fill: #002f62 } 
		.s1 { fill: #00c0f3 } 
		.s2 { fill: #ffffff } 
		.s3 { fill: #add136 } 
		.s4 { fill: #add137 } 
		.s5 { fill: #acd137 } 
		.s6 { fill: #acd138 } 
		.s7 { fill: #abd138 } 
		.s8 { fill: #abd139 } 
		.s9 { fill: #aad139 } 
		.s10 { fill: #aad13a } 
		.s11 { fill: #a9d13a } 
		.s12 { fill: #a9d13b } 
		.s13 { fill: #a8d13b } 
		.s14 { fill: #a8d03c } 
		.s15 { fill: #a7d03c } 
		.s16 { fill: #a7d03d } 
		.s17 { fill: #a6d03d } 
		.s18 { fill: #a6d03e } 
		.s19 { fill: #a5d03e } 
		.s20 { fill: #a5d03f } 
		.s21 { fill: #a4d040 } 
		.s22 { fill: #a3d041 } 
		.s23 { fill: #a2d042 } 
		.s24 { fill: #a1d043 } 
		.s25 { fill: #a0d044 } 
		.s26 { fill: #9fd045 } 
		.s27 { fill: #9fd046 } 
		.s28 { fill: #9ed046 } 
		.s29 { fill: #9ecf47 } 
		.s30 { fill: #9dcf47 } 
		.s31 { fill: #9ccf48 } 
		.s32 { fill: #9ccf49 } 
		.s33 { fill: #9bcf49 } 
		.s34 { fill: #9bcf4a } 
		.s35 { fill: #9acf4b } 
		.s36 { fill: #99cf4b } 
		.s37 { fill: #99cf4c } 
		.s38 { fill: #98cf4d } 
		.s39 { fill: #97cf4e } 
		.s40 { fill: #96cf4f } 
		.s41 { fill: #95cf50 } 
		.s42 { fill: #94cf51 } 
		.s43 { fill: #93ce52 } 
		.s44 { fill: #93ce53 } 
		.s45 { fill: #92ce54 } 
		.s46 { fill: #91ce54 } 
		.s47 { fill: #90ce55 } 
		.s48 { fill: #90ce56 } 
		.s49 { fill: #8fce57 } 
		.s50 { fill: #8ece58 } 
		.s51 { fill: #8dce59 } 
		.s52 { fill: #8cce5a } 
		.s53 { fill: #8bce5b } 
		.s54 { fill: #8ace5c } 
		.s55 { fill: #89ce5d } 
		.s56 { fill: #89cd5e } 
		.s57 { fill: #88cd5f } 
		.s58 { fill: #87cd60 } 
		.s59 { fill: #86cd61 } 
		.s60 { fill: #85cd61 } 
		.s61 { fill: #84cd62 } 
		.s62 { fill: #83cd63 } 
		.s63 { fill: #83cd64 } 
		.s64 { fill: #82cd65 } 
		.s65 { fill: #81cd66 } 
		.s66 { fill: #80cd67 } 
		.s67 { fill: #7fcc68 } 
		.s68 { fill: #7ecc69 } 
		.s69 { fill: #7dcc6a } 
		.s70 { fill: #7ccc6b } 
		.s71 { fill: #7bcc6c } 
		.s72 { fill: #7acc6d } 
		.s73 { fill: #79cc6e } 
		.s74 { fill: #78cc70 } 
		.s75 { fill: #77cc71 } 
		.s76 { fill: #76cc72 } 
		.s77 { fill: #75cc73 } 
		.s78 { fill: #74cb74 } 
		.s79 { fill: #73cb75 } 
		.s80 { fill: #72cb76 } 
		.s81 { fill: #71cb77 } 
		.s82 { fill: #70cb78 } 
		.s83 { fill: #6fcb79 } 
		.s84 { fill: #6ecb7b } 
		.s85 { fill: #6dcb7c } 
		.s86 { fill: #6ccb7d } 
		.s87 { fill: #6bcb7e } 
		.s88 { fill: #6aca7f } 
		.s89 { fill: #69ca81 } 
		.s90 { fill: #68ca82 } 
		.s91 { fill: #67ca83 } 
		.s92 { fill: #65ca84 } 
		.s93 { fill: #64ca85 } 
		.s94 { fill: #63ca87 } 
		.s95 { fill: #62ca88 } 
		.s96 { fill: #61ca89 } 
		.s97 { fill: #60c98a } 
		.s98 { fill: #5fc98c } 
		.s99 { fill: #5dc98d } 
		.s100 { fill: #5cc98e } 
		.s101 { fill: #5bc98f } 
		.s102 { fill: #5ac991 } 
		.s103 { fill: #59c992 } 
		.s104 { fill: #58c993 } 
		.s105 { fill: #56c895 } 
		.s106 { fill: #55c896 } 
		.s107 { fill: #54c897 } 
		.s108 { fill: #53c899 } 
		.s109 { fill: #51c89a } 
		.s110 { fill: #50c89b } 
		.s111 { fill: #4fc89d } 
		.s112 { fill: #4ec89e } 
		.s113 { fill: #4cc8a0 } 
		.s114 { fill: #4bc7a1 } 
		.s115 { fill: #4ac7a2 } 
		.s116 { fill: #48c7a4 } 
		.s117 { fill: #47c7a5 } 
		.s118 { fill: #46c7a7 } 
		.s119 { fill: #45c7a8 } 
		.s120 { fill: #43c7aa } 
		.s121 { fill: #42c6ab } 
		.s122 { fill: #41c6ad } 
		.s123 { fill: #3fc6ae } 
		.s124 { fill: #3ec6af } 
		.s125 { fill: #3cc6b1 } 
		.s126 { fill: #3bc6b2 } 
		.s127 { fill: #3ac6b4 } 
		.s128 { fill: #38c6b5 } 
		.s129 { fill: #37c5b7 } 
		.s130 { fill: #36c5b9 } 
		.s131 { fill: #34c5ba } 
		.s132 { fill: #33c5bc } 
		.s133 { fill: #31c5bd } 
		.s134 { fill: #30c5bf } 
		.s135 { fill: #2ec5c0 } 
		.s136 { fill: #2dc4c2 } 
		.s137 { fill: #2cc4c3 } 
		.s138 { fill: #2ac4c5 } 
		.s139 { fill: #29c4c7 } 
		.s140 { fill: #27c4c8 } 
		.s141 { fill: #26c4ca } 
		.s142 { fill: #24c4cb } 
		.s143 { fill: #23c3cd } 
		.s144 { fill: #21c3cf } 
		.s145 { fill: #20c3d0 } 
		.s146 { fill: #1ec3d2 } 
		.s147 { fill: #1dc3d4 } 
		.s148 { fill: #1bc3d5 } 
		.s149 { fill: #1ac3d7 } 
		.s150 { fill: #18c2d9 } 
		.s151 { fill: #16c2da } 
		.s152 { fill: #15c2dc } 
		.s153 { fill: #13c2de } 
		.s154 { fill: #12c2e0 } 
		.s155 { fill: #10c2e1 } 
		.s156 { fill: #0fc1e3 } 
		.s157 { fill: #0dc1e5 } 
		.s158 { fill: #0bc1e7 } 
		.s159 { fill: #0ac1e8 } 
		.s160 { fill: #08c1ea } 
		.s161 { fill: #07c1ec } 
		.s162 { fill: #05c0ee } 
		.s163 { fill: #03c0ef } 
		.s164 { fill: #02c0f1 } 
		.s165 { fill: #01c0f2 } 
		.s166 { fill: #03c0f0 } 
		.s167 { fill: #04c0ef } 
		.s168 { fill: #06c1ed } 
		.s169 { fill: #06c1ec } 
		.s170 { fill: #07c1eb } 
		.s171 { fill: #09c1e9 } 
		.s172 { fill: #0cc1e6 } 
		.s173 { fill: #0ec1e4 } 
		.s174 { fill: #10c2e2 } 
		.s175 { fill: #11c2e1 } 
		.s176 { fill: #11c2e0 } 
		.s177 { fill: #12c2df } 
		.s178 { fill: #14c2dd } 
		.s179 { fill: #16c2db } 
		.s180 { fill: #17c2da } 
		.s181 { fill: #19c2d8 } 
		.s182 { fill: #1bc3d6 } 
		.s183 { fill: #1cc3d5 } 
		.s184 { fill: #1dc3d3 } 
		.s185 { fill: #1fc3d1 } 
		.s186 { fill: #22c3ce } 
		.s187 { fill: #24c4cc } 
		.s188 { fill: #25c4cb } 
		.s189 { fill: #27c4c9 } 
		.s190 { fill: #28c4c8 } 
		.s191 { fill: #28c4c7 } 
		.s192 { fill: #29c4c6 } 
		.s193 { fill: #2bc4c4 } 
		.s194 { fill: #2ec5c1 } 
		.s195 { fill: #2fc5c0 } 
		.s196 { fill: #31c5be } 
		.s197 { fill: #32c5bd } 
		.s198 { fill: #34c5bb } 
		.s199 { fill: #35c5b9 } 
		.s200 { fill: #36c5b8 } 
		.s201 { fill: #38c6b6 } 
		.s202 { fill: #39c6b5 } 
		.s203 { fill: #3bc6b3 } 
		.s204 { fill: #3cc6b2 } 
		.s205 { fill: #3dc6b1 } 
		.s206 { fill: #3ec6b0 } 
		.s207 { fill: #3fc6af } 
		.s208 { fill: #40c6ad } 
		.s209 { fill: #41c6ac } 
		.s210 { fill: #42c7ab } 
		.s211 { fill: #44c7a9 } 
		.s212 { fill: #47c7a6 } 
		.s213 { fill: #48c7a5 } 
		.s214 { fill: #49c7a4 } 
		.s215 { fill: #4ac7a3 } 
		.s216 { fill: #4bc7a2 } 
		.s217 { fill: #4dc89f } 
		.s218 { fill: #50c89c } 
		.s219 { fill: #51c89b } 
		.s220 { fill: #52c89a } 
		.s221 { fill: #54c898 } 
		.s222 { fill: #55c897 } 
		.s223 { fill: #56c896 } 
		.s224 { fill: #57c994 } 
		.s225 { fill: #57c993 } 
		.s226 { fill: #58c992 } 
		.s227 { fill: #59c991 } 
		.s228 { fill: #5ac990 } 
		.s229 { fill: #5ec98c } 
		.s230 { fill: #5fc98b } 
		.s231 { fill: #61c989 } 
		.s232 { fill: #62ca87 } 
		.s233 { fill: #63ca86 } 
		.s234 { fill: #66ca83 } 
		.s235 { fill: #67ca82 } 
		.s236 { fill: #68ca81 } 
		.s237 { fill: #69ca80 } 
		.s238 { fill: #6bca7e } 
		.s239 { fill: #6ecb7a } 
		.s240 { fill: #75cb73 } 
		.s241 { fill: #79cc6f } 
		.s242 { fill: #84cd63 } 
		.s243 { fill: #85cd62 } 
		.s244 { fill: #86cd60 } 
		.s245 { fill: #87cd5f } 
		.s246 { fill: #88cd5e } 
		.s247 { fill: #89cd5d } 
		.s248 { fill: #92ce53 } 
	</style>
	<g id="Logo">
		<g id="Group_536">
			<g id="Clip-Path: Group_535" clip-path="url(#cp1)">
				<g id="Group_535">
					<path id="Path_3273" class="s0" d="m50.6 43.4c0 10.2-6.2 19.4-15.6 23.3-9.5 3.9-20.4 1.8-27.6-5.5-7.2-7.2-9.4-18.1-5.5-27.5 3.9-9.5 13.2-15.6 23.4-15.6 3.3 0 6.6 0.6 9.7 1.9 3 1.3 5.8 3.1 8.2 5.5 2.3 2.3 4.2 5.1 5.4 8.2 1.3 3 2 6.3 2 9.7z"/>
					<path id="Path_3274" class="s1" d="m41.4 26.9c4.3 4.2 6.8 10 6.9 16 0.1 6-2.1 11.8-6.2 16.2-4.2 4.4-9.8 7-15.8 7.2 13.1-9.7 1.3-29.7-1-32-2.3 2.3-14.1 22.3-1 32-6-0.2-11.7-2.8-15.8-7.2-4.1-4.4-6.3-10.2-6.2-16.2 0.1-6 2.6-11.8 6.9-16 4.3-4.2 10.1-6.6 16.1-6.6 6 0 11.8 2.4 16.1 6.6z"/>
					<path id="Path_3275" class="s2" d="m25.3 36.8c-5.9 9.6-8.1 22.5 0 28.8-5-7.4-0.3-16.5 0-17.2q-0.1-0.1 0-0.1 0 0 0 0.1c0.3 0.7 4.9 9.8 0 17.2 8-6.3 5.9-19.2 0-28.8z"/>
					<path id="Path_3276" class="s0" d="m70.4 48.2h-5.7v-3h14.9v3h-5.5v14.9h-3.7z"/>
					<path id="Path_3277" class="s0" d="m91.2 50.1l2.2 8.5 2.4-8.5h3l2.7 8.5 2.2-8.5h3.3l-3.9 12.9h-3.3l-2.5-9.6-2.4 9.6h-3.2l-4-12.9z"/>
					<path id="Path_3278" class="s0" d="m107.5 50.2h3.1l0.1 1.9q0.4-0.6 0.8-1 0.5-0.5 1.1-0.7 0.5-0.3 1.2-0.5 0.6-0.1 1.2 0c2.2 0.1 3.5 1.5 3.8 2.4 0.3 0.7 0.3 1.4 0.3 3.8v6.9h-3.2v-7.9q0-0.3-0.1-0.5 0-0.2-0.1-0.4-0.1-0.2-0.2-0.4-0.1-0.2-0.2-0.3c-0.2-0.6-0.9-0.9-1.8-0.9q-0.3 0-0.6 0-0.3 0.1-0.6 0.3-0.3 0.1-0.5 0.3-0.2 0.2-0.4 0.4-0.2 0.2-0.3 0.4-0.2 0.3-0.3 0.5 0 0.2-0.1 0.5-0.1 0.3-0.1 0.5v7.5h-3.1z"/>
					<path id="Path_3279" fill-rule="evenodd" class="s0" d="m82 49.5c4.7 0 6.8 3.2 6.8 6.9 0 3.7-2.2 7-6.9 7-3.7 0-6.6-2.3-6.6-6.9 0-3.2 1.6-7 6.7-7zm0.1 11.2c1.9 0 3.2-1 3.2-4.5 0-1.7-0.4-4.1-3.3-4.1-3.1 0-3.2 3.2-3.2 4.4 0 3 1.2 4.2 3.3 4.2z"/>
					<path id="Path_3280" fill-rule="evenodd" class="s0" d="m132.7 50.3q-0.1 0.4-0.1 0.8 0 0.4-0.1 0.8 0 0.4 0 0.8 0 0.4 0 0.8v9.8c0 4-3.6 4.6-6.1 4.6-1.8 0-5.4-0.5-5.8-3.9h3.4c0.1 0.4 0.6 1.5 2.6 1.5 1.2 0 2.4-0.6 2.7-1.7 0.1-0.7 0.2-1.2 0.2-3.2-1.2 1.6-2.1 1.8-3.2 2-4.5 0.5-6.5-2.8-6.5-5.9 0-3.4 1.8-6.6 5.5-6.6q0.6 0 1.2 0.1 0.6 0.1 1.1 0.4 0.5 0.2 1 0.6 0.5 0.4 0.8 0.8l0.1-1.7zm-6.7 9.7c3.3 0 3.3-3 3.3-3.5 0-1.4-0.4-3.8-3.2-3.8-1.7 0-3.2 1.1-3.2 3.7 0 0.6 0 3.6 3.1 3.6z"/>
					<path id="Path_3281" fill-rule="evenodd" class="s0" d="m142.4 63.2c0-0.3-0.3-0.8-0.2-0.9-1.1 1.1-2.6 1.4-4.4 1.3-1.9 0-3-0.7-3.5-1.2q-0.3-0.2-0.5-0.5-0.3-0.4-0.4-0.7-0.2-0.4-0.2-0.8-0.1-0.3-0.1-0.7c0-1.1 0.5-2.8 2.9-3.9 1.6-0.8 4.1-0.5 5.3-1.1-0.2 0.1 0.8-0.2 0.4-1.5-0.4-0.9-1.6-1-1.9-1-0.6 0-1.7 0-2.2 0.6q-0.1 0.1-0.2 0.2-0.1 0.1-0.1 0.3-0.1 0.1-0.1 0.2-0.1 0.2-0.1 0.3h-3.2q0-0.4 0.1-0.9 0.1-0.4 0.3-0.8 0.2-0.4 0.5-0.8 0.2-0.3 0.6-0.6c1.2-0.9 2.7-1.1 3.9-1.1 1.1 0 3.7 0.2 4.9 1.7q0.3 0.4 0.5 0.8 0.2 0.4 0.3 0.8 0.2 0.4 0.2 0.8 0.1 0.4 0.1 0.9v5.2q0 0.5 0 0.9 0.1 0.4 0.1 0.8 0 0.4 0.1 0.8 0.1 0.5 0.1 0.9zm-0.2-0.9q0 0 0 0 0 0 0 0zm-5.6-2.7c0.2 0.9 1.1 1.6 2.3 1.6q0.3 0 0.6-0.1 0.2 0 0.5-0.1 0.2-0.1 0.5-0.2 0.2-0.2 0.4-0.3c1.7-1.2 1.4-3.8 1.1-3.7q-0.3 0.2-0.7 0.3-0.3 0.1-0.7 0.1-0.4 0.1-0.7 0.2-0.4 0.1-0.8 0.1c-1.4 0.2-2.6 0.9-2.5 2.1z"/>
					<path id="Path_3282" class="s0" d="m148.7 59c0.1 0.8 1.3 2 2.9 2 1.9 0 2.6-0.8 2.6-1.6-0.1-1.3-0.8-1.2-2.3-1.6l-2.7-0.5c-1.8-0.5-3.1-1.1-3.1-3.7 0-2.5 2.3-3.9 5.8-3.9 2.7 0 4.9 1.6 5 4.1l-2.9 0.1c-0.1-1.5-1.9-2-2.5-2-1 0-2.3 0.6-2.3 1.4 0 1.2 1 1.2 2.1 1.5l2.6 0.4c2.4 0.7 3.6 1.7 3.6 3.5 0 2.2-1 4.9-6.1 4.6-1.7 0-3.4-0.6-4.6-1.8q-0.3-0.2-0.5-0.5-0.1-0.3-0.3-0.6-0.1-0.4-0.2-0.7 0-0.3 0-0.7z"/>
					<path id="Path_3283" fill-rule="evenodd" class="s0" d="m102.1 23q-0.6 0.6-1.2 1-0.7 0.4-1.4 0.7-0.7 0.3-1.5 0.5v-2.9c2.8-0.7 3.9-3.4 4.2-4.2h2.9q-0.1 0.2-0.1 0.4-0.1 0.2-0.1 0.4-0.1 0.2-0.1 0.4-0.1 0.2-0.2 0.3h20.5v2.3h-21.9q-0.5 0.6-1.1 1.1zm24.5 17.1c0 0-5.4 0.4-5.4-5.9 0 0 0-4 0-5.7h-10.5v4.4h9.7v2.3h-4.6q0.7 0.3 1.3 0.6 0.7 0.3 1.3 0.7 0.7 0.4 1.3 0.9 0.6 0.4 1.2 0.9l-3.2 1.8c-2.8-2.9-5.3-4.3-7-4.9v4.9h-2.9v-4.9c-1.4 1.7-4.8 4.9-9.8 4.9v-3.2q0.9 0 1.8-0.1 0.8-0.1 1.7-0.3 0.8-0.3 1.6-0.6 0.8-0.3 1.5-0.7h-6.6v-2.3h9.8v-4.4h-9.8v-2.4h25.9v6.3c0 3 0.8 3.8 2.7 3.8zm-54.6-5.2q0.6 0.3 1.1 0.7 0.5 0.3 1 0.7 0.5 0.4 1 0.8l-2.2 3q-0.3-0.5-0.6-1-0.3-0.5-0.6-0.9-0.4-0.4-0.8-0.7-0.5-0.4-0.9-0.7c-1.7 3.3-4.3 3.3-5.3 3.3v-3.1c1.3 0 4.3-0.3 4.3-9v-9.9h2.5v9.9q0 0.2 0 0.4c0.6-1.3 1.2-3.3 1.2-6.6v-2.2h2.5v2.3c-0.1 5.4-2.2 7.6-3.7 8.6q-0.1 0.5-0.1 1-0.1 0.5-0.2 1 0 0.5-0.1 1-0.1 0.5-0.3 0.9 0.6 0.3 1.2 0.5zm14.1-2.7h8.5v2.3h-5.5c0.8 1 2.5 2.3 5.5 2.4v3.2q-1.3-0.1-2.6-0.5-1.3-0.4-2.4-1.1-1.1-0.7-2-1.8-0.9-1-1.5-2.2v5.6h-2.5v-5.6q-0.6 1.2-1.5 2.2-0.9 1.1-2 1.8-1.1 0.7-2.4 1.1-1.3 0.4-2.6 0.5v-3c3.1-0.1 4.8-1.5 5.6-2.6h-5.6v-2.3h8.5v-1.3h-6.2v-8.8h-1.5v-2.5h1.5v-1.5h2.5v1.5h9.9v-1.5h2.5v1.5h1.5v2.5h-1.5v8.8h-6.2zm-6.2-8.1h9.9v-2h-9.9zm0 4.5h9.9v-2h-9.9zm27.2 3.9c0 0-5.6 0.4-9.1-3.1h5.6c0.6 0.9 2.1 2.5 3.5 3.1zm7.7-3.1h5.6c-3.5 3.5-9.1 3.1-9.1 3.1 1.4-0.6 2.9-2.2 3.5-3.1zm-49.4-9.7h2.5v9.1h-2.5zm37.7 3.3h20.8v2.1h-20.8z"/>
					<path id="Rectangle_110" class="s0" d="m171.8 13.7h0.5v55h-0.5z"/>
				</g>
			</g>
		</g>
		<g id="Group_538">
			<g id="Clip-Path: Group_537" clip-path="url(#cp2)">
				<g id="Group_537">
					<path id="Path_3284" class="s3" d="m199.2 13.2l-13 18.6v-18.6z"/>
					<path id="Path_3285" class="s3" d="m199.3 13.2l-13.1 18.7v-0.1l13-18.6z"/>
					<path id="Path_3286" class="s3" d="m199.3 13.2l-13.1 18.8v-0.1l13.1-18.7z"/>
					<path id="Path_3287" class="s3" d="m199.4 13.2l-13.2 18.9v-0.1l13.1-18.8z"/>
					<path id="Path_3288" class="s3" d="m199.4 13.2l-13.2 19v-0.1l13.2-18.9z"/>
					<path id="Path_3289" class="s3" d="m199.5 13.2l-13.3 19 13.2-19z"/>
					<path id="Path_3290" class="s3" d="m199.6 13.2l-13.4 19.1v-0.1l13.3-19z"/>
					<path id="Path_3291" class="s3" d="m199.6 13.2l-13.4 19.2v-0.1l13.4-19.1z"/>
					<path id="Path_3292" class="s4" d="m199.7 13.2l-13.5 19.3v-0.1l13.4-19.2z"/>
					<path id="Path_3293" class="s5" d="m199.7 13.2l-13.5 19.4v-0.1l13.5-19.3z"/>
					<path id="Path_3294" class="s5" d="m199.8 13.2l-13.6 19.4 13.5-19.4z"/>
					<path id="Path_3295" class="s5" d="m199.8 13.2l-13.6 19.5v-0.1l13.6-19.4z"/>
					<path id="Path_3296" class="s5" d="m199.9 13.2l-13.7 19.6v-0.1l13.6-19.5z"/>
					<path id="Path_3297" class="s5" d="m199.9 13.2l-13.7 19.7v-0.1l13.7-19.6z"/>
					<path id="Path_3298" class="s6" d="m200 13.2l-13.8 19.8v-0.1l13.7-19.7z"/>
					<path id="Path_3299" class="s7" d="m200.1 13.2l-13.9 19.8 13.8-19.8z"/>
					<path id="Path_3300" class="s7" d="m200.1 13.2l-13.9 19.9v-0.1l13.9-19.8z"/>
					<path id="Path_3301" class="s7" d="m200.2 13.2l-14 20v-0.1l13.9-19.9h0.1z"/>
					<path id="Path_3302" class="s8" d="m200.2 13.3l-14 20v-0.1l14-20z"/>
					<path id="Path_3303" class="s9" d="m200.2 13.3l-14 20.1v-0.1l14-20z"/>
					<path id="Path_3304" class="s9" d="m200.2 13.4l-14 20 14-20.1z"/>
					<path id="Path_3305" class="s9" d="m200.2 13.5l-14 20v-0.1l14-20z"/>
					<path id="Path_3306" class="s10" d="m200.2 13.6l-14 20v-0.1l14-20z"/>
					<path id="Path_3307" class="s11" d="m200.2 13.7l-14 20v-0.1l14-20z"/>
					<path id="Path_3308" class="s11" d="m200.2 13.7l-14 20.1v-0.1l14-20z"/>
					<path id="Path_3309" class="s12" d="m200.2 13.8l-14 20 14-20.1z"/>
					<path id="Path_3310" class="s13" d="m200.2 13.9l-14 20v-0.1l14-20z"/>
					<path id="Path_3311" class="s13" d="m200.2 14l-14 20v-0.1l14-20z"/>
					<path id="Path_3312" class="s14" d="m200.2 14.1l-14 20v-0.1l14-20z"/>
					<path id="Path_3313" class="s15" d="m200.2 14.1l-14 20.1v-0.1l14-20z"/>
					<path id="Path_3314" class="s16" d="m200.2 14.2l-14 20 14-20.1z"/>
					<path id="Path_3315" class="s16" d="m200.2 14.3l-14 20v-0.1l14-20z"/>
					<path id="Path_3316" class="s17" d="m200.2 14.4l-14 20v-0.1l14-20z"/>
					<path id="Path_3317" class="s18" d="m200.2 14.5l-14 20v-0.1l14-20z"/>
					<path id="Path_3318" class="s19" d="m200.2 14.5l-14 20.1v-0.1l14-20z"/>
					<path id="Path_3319" class="s20" d="m200.2 14.6l-14 20 14-20.1z"/>
					<path id="Path_3320" class="s20" d="m200.2 14.7l-14 20v-0.1l14-20z"/>
					<path id="Path_3321" class="s21" d="m200.2 14.8l-14 20v-0.1l14-20z"/>
					<path id="Path_3322" class="s21" d="m200.2 14.9l-14 20v-0.1l14-20z"/>
					<path id="Path_3323" class="s22" d="m200.2 14.9l-14 20.1v-0.1l14-20z"/>
					<path id="Path_3324" class="s22" d="m200.2 15l-14 20 14-20.1z"/>
					<path id="Path_3325" class="s23" d="m200.2 15.1l-14 20v-0.1l14-20z"/>
					<path id="Path_3326" class="s23" d="m200.2 15.2l-14 20v-0.1l14-20z"/>
					<path id="Path_3327" class="s24" d="m200.2 15.3l-14 20v-0.1l14-20z"/>
					<path id="Path_3328" class="s24" d="m200.2 15.3l-14 20.1v-0.1l14-20z"/>
					<path id="Path_3329" class="s25" d="m200.2 15.4l-14 20 14-20.1z"/>
					<path id="Path_3330" class="s25" d="m200.2 15.5l-14 20v-0.1l14-20z"/>
					<path id="Path_3331" class="s26" d="m200.2 15.6l-14 20v-0.1l14-20z"/>
					<path id="Path_3332" class="s27" d="m200.2 15.7l-14 20v-0.1l14-20z"/>
					<path id="Path_3333" class="s28" d="m200.2 15.7l-14 20.1v-0.1l14-20z"/>
					<path id="Path_3334" class="s29" d="m200.2 15.8l-14 20 14-20.1z"/>
					<path id="Path_3335" class="s30" d="m200.2 15.9l-14 20v-0.1l14-20z"/>
					<path id="Path_3336" class="s31" d="m200.2 16l-14 20v-0.1l14-20z"/>
					<path id="Path_3337" class="s32" d="m200.2 16.1l-14 20v-0.1l14-20z"/>
					<path id="Path_3338" class="s33" d="m200.2 16.1l-14 20.1v-0.1l14-20z"/>
					<path id="Path_3339" class="s34" d="m200.2 16.2l-14 20 14-20.1z"/>
					<path id="Path_3340" class="s35" d="m200.2 16.3l-14 20v-0.1l14-20z"/>
					<path id="Path_3341" class="s36" d="m200.2 16.4l-14 20v-0.1l14-20z"/>
					<path id="Path_3342" class="s37" d="m200.2 16.5l-14 20v-0.1l14-20z"/>
					<path id="Path_3343" class="s38" d="m200.2 16.5l-14 20.1v-0.1l14-20z"/>
					<path id="Path_3344" class="s39" d="m200.2 16.6l-14 20 14-20.1z"/>
					<path id="Path_3345" class="s39" d="m200.2 16.7l-14 20v-0.1l14-20z"/>
					<path id="Path_3346" class="s40" d="m200.2 16.8l-14 20v-0.1l14-20z"/>
					<path id="Path_3347" class="s41" d="m200.2 16.9l-14 20v-0.1l14-20z"/>
					<path id="Path_3348" class="s41" d="m200.2 16.9l-14 20.1v-0.1l14-20z"/>
					<path id="Path_3349" class="s42" d="m200.2 17l-14 20 14-20z"/>
					<path id="Path_3350" class="s43" d="m200.2 17.1l-14 20v-0.1l14-20z"/>
					<path id="Path_3351" class="s44" d="m200.2 17.2l-14 20v-0.1l14-20z"/>
					<path id="Path_3352" class="s45" d="m200.2 17.3l-14 20v-0.1l14-20z"/>
					<path id="Path_3353" class="s46" d="m200.2 17.4l-14 20v-0.1l14-20z"/>
					<path id="Path_3354" class="s47" d="m200.2 17.4l-14 20 14-20z"/>
					<path id="Path_3355" class="s48" d="m200.2 17.5l-14 20v-0.1l14-20z"/>
					<path id="Path_3356" class="s49" d="m200.2 17.6l-14 20v-0.1l14-20z"/>
					<path id="Path_3357" class="s50" d="m200.2 17.7l-14 20v-0.1l14-20z"/>
					<path id="Path_3358" class="s51" d="m200.2 17.8l-14 20v-0.1l14-20z"/>
					<path id="Path_3359" class="s51" d="m200.2 17.8l-14 20 14-20z"/>
					<path id="Path_3360" class="s52" d="m200.2 17.9l-14 20v-0.1l14-20z"/>
					<path id="Path_3361" class="s53" d="m200.2 18l-14 20v-0.1l14-20z"/>
					<path id="Path_3362" class="s54" d="m200.2 18.1l-14 20v-0.1l14-20z"/>
					<path id="Path_3363" class="s55" d="m200.2 18.2l-14 20v-0.1l14-20z"/>
					<path id="Path_3364" class="s56" d="m200.2 18.2l-14 20 14-20z"/>
					<path id="Path_3365" class="s57" d="m200.2 18.3l-14 20v-0.1l14-20z"/>
					<path id="Path_3366" class="s58" d="m200.2 18.4l-14 20v-0.1l14-20z"/>
					<path id="Path_3367" class="s59" d="m200.2 18.5l-14 20v-0.1l14-20z"/>
					<path id="Path_3368" class="s60" d="m200.2 18.6l-14 20v-0.1l14-20z"/>
					<path id="Path_3369" class="s61" d="m200.2 18.6l-14 20.1v-0.1l14-20z"/>
					<path id="Path_3370" class="s62" d="m200.2 18.7l-14 20v-0.1l14-20z"/>
					<path id="Path_3371" class="s63" d="m200.2 18.8l-14 20v-0.1l14-20z"/>
					<path id="Path_3372" class="s64" d="m200.2 18.9l-14 20v-0.1l14-20z"/>
					<path id="Path_3373" class="s65" d="m200.2 19l-14 20v-0.1l14-20z"/>
					<path id="Path_3374" class="s66" d="m200.2 19l-14 20.1v-0.1l14-20z"/>
					<path id="Path_3375" class="s67" d="m200.2 19.1l-14 20 14-20.1z"/>
					<path id="Path_3376" class="s68" d="m200.2 19.2l-14 20v-0.1l14-20z"/>
					<path id="Path_3377" class="s69" d="m200.2 19.3l-14 20v-0.1l14-20z"/>
					<path id="Path_3378" class="s70" d="m200.2 19.4l-14 20v-0.1l14-20z"/>
					<path id="Path_3379" class="s71" d="m200.2 19.4l-14 20.1v-0.1l14-20z"/>
					<path id="Path_3380" class="s72" d="m200.2 19.5l-14 20 14-20.1z"/>
					<path id="Path_3381" class="s73" d="m200.2 19.6l-14 20v-0.1l14-20z"/>
					<path id="Path_3382" class="s74" d="m200.2 19.7l-14 20v-0.1l14-20z"/>
					<path id="Path_3383" class="s75" d="m200.2 19.8l-14 20v-0.1l14-20z"/>
					<path id="Path_3384" class="s76" d="m200.2 19.8l-14 20.1v-0.1l14-20z"/>
					<path id="Path_3385" class="s77" d="m200.2 19.9l-14 20 14-20.1z"/>
					<path id="Path_3386" class="s78" d="m200.2 20l-14 20v-0.1l14-20z"/>
					<path id="Path_3387" class="s79" d="m200.2 20.1l-14 20v-0.1l14-20z"/>
					<path id="Path_3388" class="s80" d="m200.2 20.2l-14 20v-0.1l14-20z"/>
					<path id="Path_3389" class="s81" d="m200.2 20.2l-14 20.1v-0.1l14-20z"/>
					<path id="Path_3390" class="s82" d="m200.2 20.3l-14 20 14-20.1z"/>
					<path id="Path_3391" class="s83" d="m200.2 20.4l-14 20v-0.1l14-20z"/>
					<path id="Path_3392" class="s84" d="m200.2 20.5l-14 20v-0.1l14-20z"/>
					<path id="Path_3393" class="s85" d="m200.2 20.6l-14 20v-0.1l14-20z"/>
					<path id="Path_3394" class="s86" d="m200.2 20.6l-14 20.1v-0.1l14-20z"/>
					<path id="Path_3395" class="s87" d="m200.2 20.7l-14 20 14-20.1z"/>
					<path id="Path_3396" class="s88" d="m200.2 20.8l-14 20v-0.1l14-20z"/>
					<path id="Path_3397" class="s89" d="m200.2 20.9l-14 20v-0.1l14-20z"/>
					<path id="Path_3398" class="s90" d="m200.2 21l-14 20v-0.1l14-20z"/>
					<path id="Path_3399" class="s91" d="m200.2 21l-14 20.1v-0.1l14-20z"/>
					<path id="Path_3400" class="s92" d="m200.2 21.1l-14 20 14-20.1z"/>
					<path id="Path_3401" class="s93" d="m200.2 21.2l-14 20v-0.1l14-20z"/>
					<path id="Path_3402" class="s94" d="m200.2 21.3l-14 20v-0.1l14-20z"/>
					<path id="Path_3403" class="s95" d="m200.2 21.4l-14 20v-0.1l14-20z"/>
					<path id="Path_3404" class="s96" d="m200.2 21.4l-14 20.1v-0.1l14-20z"/>
					<path id="Path_3405" class="s97" d="m200.2 21.5l-14 20 14-20.1z"/>
					<path id="Path_3406" class="s98" d="m200.2 21.6l-14 20v-0.1l14-20z"/>
					<path id="Path_3407" class="s99" d="m200.2 21.7l-14 20v-0.1l14-20z"/>
					<path id="Path_3408" class="s100" d="m200.2 21.8l-14 20v-0.1l14-20z"/>
					<path id="Path_3409" class="s101" d="m200.2 21.8l-14 20.1v-0.1l14-20z"/>
					<path id="Path_3410" class="s102" d="m200.2 21.9l-14 20 14-20.1z"/>
					<path id="Path_3411" class="s103" d="m200.2 22l-14 20v-0.1l14-20z"/>
					<path id="Path_3412" class="s104" d="m200.2 22.1l-14 20v-0.1l14-20z"/>
					<path id="Path_3413" class="s105" d="m200.2 22.2l-14 20v-0.1l14-20z"/>
					<path id="Path_3414" class="s106" d="m200.2 22.2l-14 20.1v-0.1l14-20z"/>
					<path id="Path_3415" class="s107" d="m200.2 22.3l-14 20 14-20.1z"/>
					<path id="Path_3416" class="s108" d="m200.2 22.4l-14 20v-0.1l14-20z"/>
					<path id="Path_3417" class="s109" d="m200.2 22.5l-14 20v-0.1l14-20z"/>
					<path id="Path_3418" class="s110" d="m200.2 22.6l-14 20v-0.1l14-20z"/>
					<path id="Path_3419" class="s111" d="m200.2 22.6l-14 20.1v-0.1l14-20z"/>
					<path id="Path_3420" class="s112" d="m200.2 22.7l-14 20 14-20.1z"/>
					<path id="Path_3421" class="s113" d="m200.2 22.8l-14 20v-0.1l14-20z"/>
					<path id="Path_3422" class="s114" d="m200.2 22.9l-14 20v-0.1l14-20z"/>
					<path id="Path_3423" class="s115" d="m200.2 23l-14 20v-0.1l14-20z"/>
					<path id="Path_3424" class="s116" d="m200.2 23l-14 20.1v-0.1l14-20z"/>
					<path id="Path_3425" class="s117" d="m200.2 23.1l-14 20 14-20.1z"/>
					<path id="Path_3426" class="s118" d="m200.2 23.2l-14 20v-0.1l14-20z"/>
					<path id="Path_3427" class="s119" d="m200.2 23.3l-14 20v-0.1l14-20z"/>
					<path id="Path_3428" class="s120" d="m200.2 23.4l-14 20v-0.1l14-20z"/>
					<path id="Path_3429" class="s121" d="m200.2 23.4l-14 20.1v-0.1l14-20z"/>
					<path id="Path_3430" class="s122" d="m200.2 23.5l-14 20 14-20.1z"/>
					<path id="Path_3431" class="s123" d="m200.2 23.6l-14 20v-0.1l14-20z"/>
					<path id="Path_3432" class="s124" d="m200.2 23.7l-14 20v-0.1l14-20z"/>
					<path id="Path_3433" class="s125" d="m200.2 23.8l-14 20v-0.1l14-20z"/>
					<path id="Path_3434" class="s126" d="m200.2 23.8l-14 20.1v-0.1l14-20z"/>
					<path id="Path_3435" class="s127" d="m200.2 23.9l-14 20 14-20.1z"/>
					<path id="Path_3436" class="s128" d="m200.2 24l-14 20v-0.1l14-20z"/>
					<path id="Path_3437" class="s129" d="m200.2 24.1l-14 20v-0.1l14-20z"/>
					<path id="Path_3438" class="s130" d="m200.2 24.2l-14 20v-0.1l14-20z"/>
					<path id="Path_3439" class="s131" d="m200.2 24.3l-14 20v-0.1l14-20z"/>
					<path id="Path_3440" class="s132" d="m200.2 24.3l-14 20 14-20z"/>
					<path id="Path_3441" class="s133" d="m200.2 24.4l-14 20v-0.1l14-20z"/>
					<path id="Path_3442" class="s134" d="m200.2 24.5l-14 20v-0.1l14-20z"/>
					<path id="Path_3443" class="s135" d="m200.2 24.6l-14 20v-0.1l14-20z"/>
					<path id="Path_3444" class="s136" d="m200.2 24.7l-14 20v-0.1l14-20z"/>
					<path id="Path_3445" class="s137" d="m200.2 24.7l-14 20 14-20z"/>
					<path id="Path_3446" class="s138" d="m200.2 24.8l-14 20v-0.1l14-20z"/>
					<path id="Path_3447" class="s139" d="m200.2 24.9l-14 20v-0.1l14-20z"/>
					<path id="Path_3448" class="s140" d="m200.2 25l-14 20v-0.1l14-20z"/>
					<path id="Path_3449" class="s141" d="m200.2 25.1l-14 20v-0.1l14-20z"/>
					<path id="Path_3450" class="s142" d="m200.2 25.1l-14 20 14-20z"/>
					<path id="Path_3451" class="s143" d="m200.2 25.2l-14 20v-0.1l14-20z"/>
					<path id="Path_3452" class="s144" d="m200.2 25.3l-14 20v-0.1l14-20z"/>
					<path id="Path_3453" class="s145" d="m200.2 25.4l-14 20v-0.1l14-20z"/>
					<path id="Path_3454" class="s146" d="m200.2 25.5l-14 20v-0.1l14-20z"/>
					<path id="Path_3455" class="s147" d="m200.2 25.5l-14 20 14-20z"/>
					<path id="Path_3456" class="s148" d="m200.2 25.6l-14 20v-0.1l14-20z"/>
					<path id="Path_3457" class="s149" d="m200.2 25.7l-14 20v-0.1l14-20z"/>
					<path id="Path_3458" class="s150" d="m200.2 25.8l-14 20v-0.1l14-20z"/>
					<path id="Path_3459" class="s151" d="m200.2 25.9l-14 20v-0.1l14-20z"/>
					<path id="Path_3460" class="s152" d="m200.2 25.9l-14 20.1v-0.1l14-20z"/>
					<path id="Path_3461" class="s153" d="m200.2 26l-14 20 14-20.1z"/>
					<path id="Path_3462" class="s154" d="m200.2 26.1l-14 20v-0.1l14-20z"/>
					<path id="Path_3463" class="s155" d="m200.2 26.2l-14 20v-0.1l14-20z"/>
					<path id="Path_3464" class="s156" d="m200.2 26.3l-14 20v-0.1l14-20z"/>
					<path id="Path_3465" class="s157" d="m200.2 26.3l-14 20.1v-0.1l14-20z"/>
					<path id="Path_3466" class="s158" d="m200.2 26.4l-14 20 14-20.1z"/>
					<path id="Path_3467" class="s159" d="m200.2 26.5l-14 20v-0.1l14-20z"/>
					<path id="Path_3468" class="s160" d="m200.2 26.6l-14 20v-0.1l14-20z"/>
					<path id="Path_3469" class="s161" d="m200.2 26.7l-14 20v-0.1l14-20z"/>
					<path id="Path_3470" class="s162" d="m200.2 26.7l-14 20.1v-0.1l14-20z"/>
					<path id="Path_3471" class="s163" d="m200.2 26.8l-14 20 14-20.1z"/>
					<path id="Path_3472" class="s164" d="m200.2 26.9l-14 20v-0.1l14-20z"/>
					<path id="Path_3473" class="s1" d="m200.2 27l-14 20v-0.1l14-20z"/>
					<path id="Path_3474" class="s1" d="m189.1 53.1l-2.9-2v-4.1l14-20v26.1z"/>
				</g>
			</g>
		</g>
		<g id="Group_540">
			<g id="Clip-Path: Group_539" clip-path="url(#cp3)">
				<g id="Group_539">
					<path id="Rectangle_112" class="s1" d="m215.2 43.3h7.5v2.3h-7.5z"/>
					<path id="Rectangle_113" class="s1" d="m215.2 40h7.5v3.3h-7.5z"/>
					<path id="Rectangle_114" class="s1" d="m215.2 40h7.5-7.5z"/>
					<path id="Rectangle_115" class="s165" d="m215.2 39.9h7.5v0.1h-7.5z"/>
					<path id="Rectangle_116" class="s164" d="m215.2 39.9h7.5-7.5z"/>
					<path id="Rectangle_117" class="s166" d="m215.2 39.8h7.5v0.1h-7.5z"/>
					<path id="Rectangle_118" class="s167" d="m215.2 39.8h7.5-7.5z"/>
					<path id="Rectangle_119" class="s162" d="m215.2 39.7h7.5v0.1h-7.5z"/>
					<path id="Rectangle_120" class="s168" d="m215.2 39.7h7.5-7.5z"/>
					<path id="Rectangle_121" class="s169" d="m215.2 39.6h7.5v0.1h-7.5z"/>
					<path id="Rectangle_122" class="s170" d="m215.2 39.6h7.5-7.5z"/>
					<path id="Rectangle_123" class="s160" d="m215.2 39.5h7.5v0.1h-7.5z"/>
					<path id="Rectangle_124" class="s171" d="m215.2 39.4h7.5v0.1h-7.5z"/>
					<path id="Rectangle_125" class="s159" d="m215.2 39.4h7.5-7.5z"/>
					<path id="Rectangle_126" class="s158" d="m215.2 39.3h7.5v0.1h-7.5z"/>
					<path id="Rectangle_127" class="s172" d="m215.2 39.3h7.5-7.5z"/>
					<path id="Rectangle_128" class="s157" d="m215.2 39.2h7.5v0.1h-7.5z"/>
					<path id="Rectangle_129" class="s173" d="m215.2 39.2h7.5-7.5z"/>
					<path id="Rectangle_130" class="s156" d="m215.2 39.1h7.5v0.1h-7.5z"/>
					<path id="Rectangle_131" class="s174" d="m215.2 39.1h7.5-7.5z"/>
					<path id="Rectangle_132" class="s175" d="m215.2 39h7.5v0.1h-7.5z"/>
					<path id="Rectangle_133" class="s176" d="m215.2 39h7.5-7.5z"/>
					<path id="Rectangle_134" class="s177" d="m215.2 38.9h7.5v0.1h-7.5z"/>
					<path id="Rectangle_135" class="s153" d="m215.2 38.9h7.5-7.5z"/>
					<path id="Rectangle_136" class="s178" d="m215.2 38.8h7.5v0.1h-7.5z"/>
					<path id="Rectangle_137" class="s152" d="m215.2 38.8h7.5-7.5z"/>
					<path id="Rectangle_138" class="s179" d="m215.2 38.7h7.5v0.1h-7.5z"/>
					<path id="Rectangle_139" class="s180" d="m215.2 38.7h7.5-7.5z"/>
					<path id="Rectangle_140" class="s150" d="m215.2 38.6h7.5v0.1h-7.5z"/>
					<path id="Rectangle_141" class="s181" d="m215.2 38.6h7.5-7.5z"/>
					<path id="Rectangle_142" class="s149" d="m215.2 38.5h7.5v0.1h-7.5z"/>
					<path id="Rectangle_143" class="s182" d="m215.2 38.5h7.5-7.5z"/>
					<path id="Rectangle_144" class="s183" d="m215.2 38.4h7.5-7.5z"/>
					<path id="Rectangle_145" class="s147" d="m215.2 38.3h7.5v0.1h-7.5z"/>
					<path id="Rectangle_146" class="s184" d="m215.2 38.3h7.5-7.5z"/>
					<path id="Rectangle_147" class="s146" d="m215.2 38.2h7.5v0.1h-7.5z"/>
					<path id="Rectangle_148" class="s185" d="m215.2 38.2h7.5-7.5z"/>
					<path id="Rectangle_149" class="s145" d="m215.2 38.1h7.5v0.1h-7.5z"/>
					<path id="Rectangle_150" class="s144" d="m215.2 38.1h7.5-7.5z"/>
					<path id="Rectangle_151" class="s186" d="m215.2 38h7.5v0.1h-7.5z"/>
					<path id="Rectangle_152" class="s143" d="m215.2 38h7.5-7.5z"/>
					<path id="Rectangle_153" class="s187" d="m215.2 37.9h7.5v0.1h-7.5z"/>
					<path id="Rectangle_154" class="s188" d="m215.2 37.9h7.5-7.5z"/>
					<path id="Rectangle_155" class="s141" d="m215.2 37.8h7.5v0.1h-7.5z"/>
					<path id="Rectangle_156" class="s189" d="m215.2 37.8h7.5-7.5z"/>
					<path id="Rectangle_157" class="s190" d="m215.2 37.7h7.5v0.1h-7.5z"/>
					<path id="Rectangle_158" class="s191" d="m215.2 37.7h7.5-7.5z"/>
					<path id="Rectangle_159" class="s192" d="m215.2 37.6h7.5v0.1h-7.5z"/>
					<path id="Rectangle_160" class="s138" d="m215.2 37.6h7.5-7.5z"/>
					<path id="Rectangle_161" class="s193" d="m215.2 37.5h7.5v0.1h-7.5z"/>
					<path id="Rectangle_162" class="s137" d="m215.2 37.5h7.5-7.5z"/>
					<path id="Rectangle_163" class="s136" d="m215.2 37.4h7.5v0.1h-7.5z"/>
					<path id="Rectangle_164" class="s194" d="m215.2 37.3h7.5v0.1h-7.5z"/>
					<path id="Rectangle_165" class="s195" d="m215.2 37.3h7.5-7.5z"/>
					<path id="Rectangle_166" class="s134" d="m215.2 37.2h7.5v0.1h-7.5z"/>
					<path id="Rectangle_167" class="s196" d="m215.2 37.2h7.5-7.5z"/>
					<path id="Rectangle_168" class="s197" d="m215.2 37.1h7.5v0.1h-7.5z"/>
					<path id="Rectangle_169" class="s132" d="m215.2 37.1h7.5-7.5z"/>
					<path id="Rectangle_170" class="s198" d="m215.2 37h7.5v0.1h-7.5z"/>
					<path id="Rectangle_171" class="s131" d="m215.2 37h7.5-7.5z"/>
					<path id="Rectangle_172" class="s199" d="m215.2 36.9h7.5v0.1h-7.5z"/>
					<path id="Rectangle_173" class="s200" d="m215.2 36.9h7.5-7.5z"/>
					<path id="Rectangle_174" class="s129" d="m215.2 36.8h7.5v0.1h-7.5z"/>
					<path id="Rectangle_175" class="s201" d="m215.2 36.8h7.5-7.5z"/>
					<path id="Rectangle_176" class="s202" d="m215.2 36.7h7.5v0.1h-7.5z"/>
					<path id="Rectangle_177" class="s127" d="m215.2 36.7h7.5-7.5z"/>
					<path id="Rectangle_178" class="s203" d="m215.2 36.6h7.5v0.1h-7.5z"/>
					<path id="Rectangle_179" class="s204" d="m215.2 36.6h7.5-7.5z"/>
					<path id="Rectangle_180" class="s205" d="m215.2 36.5h7.5v0.1h-7.5z"/>
					<path id="Rectangle_181" class="s206" d="m215.2 36.5h7.5-7.5z"/>
					<path id="Rectangle_182" class="s207" d="m215.2 36.4h7.5v0.1h-7.5z"/>
					<path id="Rectangle_183" class="s123" d="m215.2 36.3h7.5v0.1h-7.5z"/>
					<path id="Rectangle_184" class="s208" d="m215.2 36.3h7.5-7.5z"/>
					<path id="Rectangle_185" class="s209" d="m215.2 36.2h7.5v0.1h-7.5z"/>
					<path id="Rectangle_186" class="s210" d="m215.2 36.2h7.5-7.5z"/>
					<path id="Rectangle_187" class="s120" d="m215.2 36.1h7.5v0.1h-7.5z"/>
					<path id="Rectangle_188" class="s211" d="m215.2 36.1h7.5-7.5z"/>
					<path id="Rectangle_189" class="s119" d="m215.2 36h7.5v0.1h-7.5z"/>
					<path id="Rectangle_190" class="s118" d="m215.2 36h7.5-7.5z"/>
					<path id="Rectangle_191" class="s212" d="m215.2 35.9h7.5v0.1h-7.5z"/>
					<path id="Rectangle_192" class="s213" d="m215.2 35.9h7.5-7.5z"/>
					<path id="Rectangle_193" class="s214" d="m215.2 35.8h7.5v0.1h-7.5z"/>
					<path id="Rectangle_194" class="s215" d="m215.2 35.8h7.5-7.5z"/>
					<path id="Rectangle_195" class="s216" d="m215.2 35.7h7.5v0.1h-7.5z"/>
					<path id="Rectangle_196" class="s114" d="m215.2 35.7h7.5-7.5z"/>
					<path id="Rectangle_197" class="s113" d="m215.2 35.6h7.5v0.1h-7.5z"/>
					<path id="Rectangle_198" class="s217" d="m215.2 35.6h7.5-7.5z"/>
					<path id="Rectangle_199" class="s112" d="m215.2 35.5h7.5v0.1h-7.5z"/>
					<path id="Rectangle_200" class="s111" d="m215.2 35.5h7.5-7.5z"/>
					<path id="Rectangle_201" class="s218" d="m215.2 35.4h7.5v0.1h-7.5z"/>
					<path id="Rectangle_202" class="s219" d="m215.2 35.4h7.5-7.5z"/>
					<path id="Rectangle_203" class="s220" d="m215.2 35.3h7.5v0.1h-7.5z"/>
					<path id="Rectangle_204" class="s108" d="m215.2 35.2h7.5v0.1h-7.5z"/>
					<path id="Rectangle_205" class="s221" d="m215.2 35.2h7.5-7.5z"/>
					<path id="Rectangle_206" class="s222" d="m215.2 35.1h7.5v0.1h-7.5z"/>
					<path id="Rectangle_207" class="s223" d="m215.2 35.1h7.5-7.5z"/>
					<path id="Rectangle_208" class="s224" d="m215.2 35h7.5v0.1h-7.5z"/>
					<path id="Rectangle_209" class="s225" d="m215.2 35h7.5-7.5z"/>
					<path id="Rectangle_210" class="s226" d="m215.2 34.9h7.5v0.1h-7.5z"/>
					<path id="Rectangle_211" class="s227" d="m215.2 34.9h7.5-7.5z"/>
					<path id="Rectangle_212" class="s228" d="m215.2 34.8h7.5v0.1h-7.5z"/>
					<path id="Rectangle_213" class="s101" d="m215.2 34.8h7.5-7.5z"/>
					<path id="Rectangle_214" class="s100" d="m215.2 34.7h7.5v0.1h-7.5z"/>
					<path id="Rectangle_215" class="s99" d="m215.2 34.7h7.5-7.5z"/>
					<path id="Rectangle_216" class="s229" d="m215.2 34.6h7.5v0.1h-7.5z"/>
					<path id="Rectangle_217" class="s230" d="m215.2 34.6h7.5-7.5z"/>
					<path id="Rectangle_218" class="s97" d="m215.2 34.5h7.5v0.1h-7.5z"/>
					<path id="Rectangle_219" class="s231" d="m215.2 34.5h7.5-7.5z"/>
					<path id="Rectangle_220" class="s95" d="m215.2 34.4h7.5v0.1h-7.5z"/>
					<path id="Rectangle_221" class="s232" d="m215.2 34.4h7.5-7.5z"/>
					<path id="Rectangle_222" class="s233" d="m215.2 34.3h7.5v0.1h-7.5z"/>
					<path id="Rectangle_223" class="s93" d="m215.2 34.2h7.5v0.1h-7.5z"/>
					<path id="Rectangle_224" class="s92" d="m215.2 34.2h7.5-7.5z"/>
					<path id="Rectangle_225" class="s234" d="m215.2 34.1h7.5v0.1h-7.5z"/>
					<path id="Rectangle_226" class="s235" d="m215.2 34.1h7.5-7.5z"/>
					<path id="Rectangle_227" class="s236" d="m215.2 34h7.5v0.1h-7.5z"/>
					<path id="Rectangle_228" class="s237" d="m215.2 34h7.5-7.5z"/>
					<path id="Rectangle_229" class="s88" d="m215.2 33.9h7.5v0.1h-7.5z"/>
					<path id="Rectangle_230" class="s238" d="m215.2 33.9h7.5-7.5z"/>
					<path id="Rectangle_231" class="s86" d="m215.2 33.8h7.5v0.1h-7.5z"/>
					<path id="Rectangle_232" class="s85" d="m215.2 33.8h7.5-7.5z"/>
					<path id="Rectangle_233" class="s84" d="m215.2 33.7h7.5v0.1h-7.5z"/>
					<path id="Rectangle_234" class="s239" d="m215.2 33.7h7.5-7.5z"/>
					<path id="Rectangle_235" class="s83" d="m215.2 33.6h7.5v0.1h-7.5z"/>
					<path id="Rectangle_236" class="s82" d="m215.2 33.6h7.5-7.5z"/>
					<path id="Rectangle_237" class="s81" d="m215.2 33.5h7.5v0.1h-7.5z"/>
					<path id="Rectangle_238" class="s80" d="m215.2 33.5h7.5-7.5z"/>
					<path id="Rectangle_239" class="s79" d="m215.2 33.4h7.5v0.1h-7.5z"/>
					<path id="Rectangle_240" class="s78" d="m215.2 33.4h7.5-7.5z"/>
					<path id="Rectangle_241" class="s240" d="m215.2 33.3h7.5v0.1h-7.5z"/>
					<path id="Rectangle_242" class="s76" d="m215.2 33.3h7.5-7.5z"/>
					<path id="Rectangle_243" class="s75" d="m215.2 33.2h7.5v0.1h-7.5z"/>
					<path id="Rectangle_244" class="s74" d="m215.2 33.1h7.5v0.1h-7.5z"/>
					<path id="Rectangle_245" class="s241" d="m215.2 33.1h7.5-7.5z"/>
					<path id="Rectangle_246" class="s73" d="m215.2 33h7.5v0.1h-7.5z"/>
					<path id="Rectangle_247" class="s72" d="m215.2 33h7.5-7.5z"/>
					<path id="Rectangle_248" class="s71" d="m215.2 32.9h7.5v0.1h-7.5z"/>
					<path id="Rectangle_249" class="s70" d="m215.2 32.9h7.5-7.5z"/>
					<path id="Rectangle_250" class="s69" d="m215.2 32.8h7.5v0.1h-7.5z"/>
					<path id="Rectangle_251" class="s68" d="m215.2 32.8h7.5-7.5z"/>
					<path id="Rectangle_252" class="s67" d="m215.2 32.7h7.5v0.1h-7.5z"/>
					<path id="Rectangle_253" class="s66" d="m215.2 32.7h7.5-7.5z"/>
					<path id="Rectangle_254" class="s65" d="m215.2 32.6h7.5v0.1h-7.5z"/>
					<path id="Rectangle_255" class="s64" d="m215.2 32.6h7.5-7.5z"/>
					<path id="Rectangle_256" class="s63" d="m215.2 32.5h7.5v0.1h-7.5z"/>
					<path id="Rectangle_257" class="s242" d="m215.2 32.5h7.5-7.5z"/>
					<path id="Rectangle_258" class="s243" d="m215.2 32.4h7.5v0.1h-7.5z"/>
					<path id="Rectangle_259" class="s60" d="m215.2 32.4h7.5-7.5z"/>
					<path id="Rectangle_260" class="s244" d="m215.2 32.3h7.5v0.1h-7.5z"/>
					<path id="Rectangle_261" class="s245" d="m215.2 32.3h7.5-7.5z"/>
					<path id="Rectangle_262" class="s246" d="m215.2 32.2h7.5v0.1h-7.5z"/>
					<path id="Rectangle_263" class="s247" d="m215.2 32.1h7.5v0.1h-7.5z"/>
					<path id="Rectangle_264" class="s54" d="m215.2 32.1h7.5-7.5z"/>
					<path id="Rectangle_265" class="s53" d="m215.2 32h7.5v0.1h-7.5z"/>
					<path id="Rectangle_266" class="s52" d="m215.2 32h7.5-7.5z"/>
					<path id="Rectangle_267" class="s51" d="m215.2 31.9h7.5v0.1h-7.5z"/>
					<path id="Rectangle_268" class="s50" d="m215.2 31.9h7.5-7.5z"/>
					<path id="Rectangle_269" class="s49" d="m215.2 31.8h7.5v0.1h-7.5z"/>
					<path id="Rectangle_270" class="s48" d="m215.2 31.8h7.5-7.5z"/>
					<path id="Rectangle_271" class="s47" d="m215.2 31.7h7.5v0.1h-7.5z"/>
					<path id="Rectangle_272" class="s46" d="m215.2 31.7h7.5-7.5z"/>
					<path id="Rectangle_273" class="s248" d="m215.2 31.6h7.5v0.1h-7.5z"/>
					<path id="Rectangle_274" class="s43" d="m215.2 31.6h7.5-7.5z"/>
					<path id="Rectangle_275" class="s42" d="m215.2 31.5h7.5v0.1h-7.5z"/>
					<path id="Rectangle_276" class="s41" d="m215.2 31.5h7.5-7.5z"/>
					<path id="Rectangle_277" class="s40" d="m215.2 31.4h7.5v0.1h-7.5z"/>
					<path id="Rectangle_278" class="s39" d="m215.2 31.4h7.5-7.5z"/>
					<path id="Rectangle_279" class="s38" d="m215.2 31.3h7.5v0.1h-7.5z"/>
					<path id="Rectangle_280" class="s37" d="m215.2 31.3h7.5-7.5z"/>
					<path id="Rectangle_281" class="s35" d="m215.2 31.2h7.5v0.1h-7.5z"/>
					<path id="Rectangle_282" class="s34" d="m215.2 31.2h7.5-7.5z"/>
					<path id="Rectangle_283" class="s32" d="m215.2 31.1h7.5v0.1h-7.5z"/>
					<path id="Rectangle_284" class="s31" d="m215.2 31h7.5v0.1h-7.5z"/>
					<path id="Rectangle_285" class="s30" d="m215.2 31h7.5-7.5z"/>
					<path id="Rectangle_286" class="s28" d="m215.2 30.9h7.5v0.1h-7.5z"/>
					<path id="Rectangle_287" class="s26" d="m215.2 30.9h7.5-7.5z"/>
					<path id="Rectangle_288" class="s25" d="m215.2 30.8h7.5v0.1h-7.5z"/>
					<path id="Rectangle_289" class="s24" d="m215.2 30.8h7.5-7.5z"/>
					<path id="Rectangle_290" class="s23" d="m215.2 30.7h7.5v0.1h-7.5z"/>
					<path id="Rectangle_291" class="s22" d="m215.2 30.7h7.5-7.5z"/>
					<path id="Rectangle_292" class="s21" d="m215.2 30.6h7.5v0.1h-7.5z"/>
					<path id="Rectangle_293" class="s20" d="m215.2 30.6h7.5-7.5z"/>
					<path id="Rectangle_294" class="s18" d="m215.2 30.5h7.5v0.1h-7.5z"/>
					<path id="Rectangle_295" class="s16" d="m215.2 30.5h7.5-7.5z"/>
					<path id="Rectangle_296" class="s15" d="m215.2 30.4h7.5v0.1h-7.5z"/>
					<path id="Rectangle_297" class="s13" d="m215.2 30.4h7.5-7.5z"/>
					<path id="Rectangle_298" class="s11" d="m215.2 30.3h7.5v0.1h-7.5z"/>
					<path id="Rectangle_299" class="s9" d="m215.2 30.3h7.5-7.5z"/>
					<path id="Rectangle_300" class="s7" d="m215.2 30.2h7.5v0.1h-7.5z"/>
					<path id="Rectangle_301" class="s5" d="m215.2 30.2h7.5-7.5z"/>
					<path id="Rectangle_302" class="s3" d="m215.2 30.1h7.5v0.1h-7.5z"/>
					<path id="Rectangle_303" class="s3" d="m215.2 24.9h7.5v5.2h-7.5z"/>
				</g>
			</g>
		</g>
		<g id="Group_542">
			<g id="Clip-Path: Group_541" clip-path="url(#cp4)">
				<g id="Group_541">
					<path id="Path_3477" class="s1" d="m261.3 16.9c3.1 2.1 5.6 5 7.1 8.5 1.5 3.5 1.9 7.4 1.3 11.1-0.7 3.8-2.5 7.3-5.1 10l-5.1-5.1c2.8-2.9 3.9-7.1 3-11-0.9-4-3.7-7.2-7.5-8.7-3.7-1.5-8-1-11.3 1.3-3.4 2.2-5.4 6-5.4 10.1 0 6.1-2.9 11.9-7.8 15.5-4.8 3.7-11.2 4.9-17 3.1-5.9-1.7-10.6-6-12.8-11.8-2.2-5.7-1.5-12.1 1.8-17.2l13.9-22.7h8.4l-8.5 13.8-6.4 11c-2.7 2.9-3.8 7.1-2.9 11 0.9 4 3.7 7.2 7.4 8.7 3.8 1.5 8 1 11.4-1.3 3.3-2.3 5.3-6.1 5.3-10.1 0-2.6 0.5-5.1 1.5-7.4 1-2.4 2.4-4.5 4.2-6.4 1.8-1.8 4-3.2 6.3-4.2 2.4-0.9 4.9-1.4 7.5-1.4 3.8 0 7.5 1.1 10.7 3.2z"/>
				</g>
			</g>
		</g>
		<g id="Group_544">
			<g id="Clip-Path: Group_543" clip-path="url(#cp5)">
				<g id="Group_543">
					<path id="Rectangle_305" class="s1" d="m202.9 13.1h61.5v40h-61.5z"/>
					<path id="Path_3478" class="s1" d="m258.8 33.1c0 10.2-6.1 19.4-15.5 23.3-9.4 3.9-20.2 1.7-27.4-5.5-7.2-7.2-9.3-18-5.5-27.4 3.9-9.4 13.1-15.5 23.3-15.5 3.3 0 6.6 0.6 9.6 1.9 3.1 1.3 5.8 3.1 8.2 5.4 2.3 2.4 4.2 5.2 5.4 8.2 1.3 3.1 1.9 6.3 1.9 9.6z"/>
					<path id="Path_3479" class="s165" d="m258.8 33.1c0 10.2-6.1 19.3-15.5 23.2-9.4 3.9-20.2 1.7-27.3-5.4-7.2-7.2-9.4-18-5.5-27.4 3.9-9.3 13-15.5 23.2-15.5 3.3 0 6.5 0.7 9.6 2 3 1.2 5.8 3.1 8.1 5.4 2.4 2.3 4.2 5.1 5.5 8.1 1.2 3.1 1.9 6.3 1.9 9.6z"/>
					<path id="Path_3480" class="s164" d="m258.7 33.1c0 10.2-6.1 19.3-15.4 23.1-9.4 3.9-20.1 1.8-27.3-5.4-7.2-7.1-9.3-17.9-5.4-27.2 3.8-9.4 13-15.5 23.1-15.5 3.3 0 6.5 0.7 9.6 1.9 3 1.3 5.8 3.1 8.1 5.4 2.3 2.4 4.1 5.1 5.4 8.2 1.3 3 1.9 6.2 1.9 9.5z"/>
					<path id="Path_3481" class="s166" d="m258.6 33.1c0 10.1-6 19.2-15.4 23.1-9.3 3.8-20 1.7-27.1-5.4-7.2-7.2-9.3-17.9-5.5-27.2 3.9-9.3 13-15.4 23.1-15.4 3.3 0 6.5 0.6 9.5 1.9 3.1 1.2 5.8 3.1 8.1 5.4 2.3 2.3 4.2 5.1 5.4 8.1 1.3 3 1.9 6.3 1.9 9.5z"/>
					<path id="Path_3482" class="s167" d="m258.6 33.1c0 10.1-6.1 19.2-15.4 23-9.3 3.9-20 1.7-27.1-5.4-7.1-7.1-9.2-17.8-5.4-27.1 3.9-9.3 12.9-15.3 23-15.3 3.3 0 6.5 0.6 9.5 1.9 3 1.2 5.8 3 8.1 5.3 2.3 2.4 4.1 5.1 5.4 8.1 1.2 3 1.9 6.3 1.9 9.5z"/>
					<path id="Path_3483" class="s162" d="m258.5 33.1c0 10.1-6.1 19.1-15.3 22.9-9.3 3.9-20 1.8-27-5.3-7.1-7.1-9.3-17.8-5.4-27.1 3.8-9.2 12.9-15.3 22.9-15.3 3.2 0 6.5 0.7 9.5 1.9 3 1.3 5.7 3.1 8 5.4 2.3 2.3 4.2 5 5.4 8 1.2 3 1.9 6.3 1.9 9.5z"/>
					<path id="Path_3484" class="s168" d="m258.4 33.1c0 10-6 19.1-15.2 22.9-9.3 3.8-19.9 1.7-27-5.4-7.1-7.1-9.2-17.7-5.4-26.9 3.9-9.3 12.9-15.3 22.9-15.3 3.2 0 6.5 0.6 9.5 1.9 3 1.2 5.7 3 8 5.3 2.3 2.3 4.1 5.1 5.3 8.1 1.3 3 1.9 6.2 1.9 9.4z"/>
					<path id="Path_3485" class="s169" d="m258.3 33.1c0 10-6 19-15.2 22.8-9.2 3.8-19.8 1.7-26.8-5.3-7.1-7.1-9.2-17.7-5.4-26.9 3.8-9.2 12.8-15.2 22.8-15.2 3.2 0 6.4 0.6 9.4 1.8 3 1.3 5.7 3.1 8 5.4 2.3 2.3 4.1 5 5.4 8 1.2 3 1.8 6.2 1.8 9.4z"/>
					<path id="Path_3486" class="s170" d="m258.3 33.1c0 10-6 18.9-15.2 22.7-9.2 3.9-19.8 1.8-26.8-5.3-7-7-9.1-17.6-5.3-26.8 3.8-9.2 12.7-15.2 22.7-15.2 3.2 0 6.4 0.7 9.4 1.9 3 1.3 5.7 3.1 8 5.3 2.3 2.3 4.1 5 5.3 8 1.2 3 1.9 6.2 1.9 9.4z"/>
					<path id="Path_3487" class="s160" d="m258.2 33.1c0 9.9-6 18.9-15.1 22.7-9.2 3.8-19.7 1.7-26.7-5.3-7.1-7-9.2-17.6-5.4-26.8 3.8-9.1 12.8-15.1 22.7-15.1 3.2 0 6.4 0.6 9.4 1.9 2.9 1.2 5.6 3 7.9 5.3 2.3 2.3 4.1 5 5.3 7.9 1.3 3 1.9 6.2 1.9 9.4z"/>
					<path id="Path_3488" class="s171" d="m258.1 33.1c0 9.9-5.9 18.8-15.1 22.6-9.1 3.8-19.6 1.7-26.6-5.3-7-7-9.1-17.5-5.3-26.6 3.8-9.2 12.7-15.1 22.6-15.1 3.2 0 6.4 0.6 9.3 1.8 3 1.3 5.7 3.1 8 5.3 2.2 2.3 4 5 5.3 8 1.2 2.9 1.8 6.1 1.8 9.3z"/>
					<path id="Path_3489" class="s159" d="m258.1 33.1c0 9.9-6 18.8-15.1 22.6-9.1 3.7-19.6 1.6-26.5-5.3-7-7-9.1-17.5-5.3-26.6 3.7-9.1 12.6-15 22.5-15 3.2 0 6.4 0.6 9.3 1.8 3 1.2 5.7 3 7.9 5.3 2.3 2.3 4.1 4.9 5.3 7.9 1.2 3 1.9 6.1 1.9 9.3z"/>
					<path id="Path_3490" class="s158" d="m258 33.1c0 9.9-5.9 18.7-15 22.5-9.1 3.7-19.5 1.7-26.5-5.3-6.9-6.9-9-17.4-5.3-26.5 3.8-9 12.7-15 22.5-15 3.2 0 6.3 0.7 9.3 1.9 2.9 1.2 5.6 3 7.9 5.2 2.2 2.3 4 5 5.2 7.9 1.3 3 1.9 6.1 1.9 9.3z"/>
					<path id="Path_3491" class="s172" d="m257.9 33.1c0 9.8-5.9 18.7-14.9 22.4-9.1 3.8-19.5 1.7-26.4-5.2-7-7-9-17.4-5.3-26.4 3.8-9.1 12.6-15 22.4-15 3.2 0 6.3 0.6 9.3 1.8 2.9 1.3 5.6 3 7.8 5.3 2.3 2.2 4.1 4.9 5.3 7.9 1.2 2.9 1.8 6.1 1.8 9.2z"/>
					<path id="Path_3492" class="s157" d="m257.8 33.1c0 9.8-5.8 18.6-14.9 22.4-9 3.7-19.4 1.6-26.3-5.3-6.9-6.9-9-17.3-5.2-26.3 3.7-9 12.5-14.9 22.3-14.9 3.2 0 6.3 0.6 9.2 1.8 3 1.2 5.6 3 7.9 5.2 2.2 2.3 4 5 5.2 7.9 1.2 2.9 1.8 6.1 1.8 9.2z"/>
					<path id="Path_3493" class="s173" d="m257.8 33.1c0 9.8-5.9 18.6-14.9 22.3-9 3.7-19.4 1.7-26.2-5.2-6.9-6.9-9-17.3-5.3-26.3 3.8-9 12.5-14.9 22.3-14.9 3.2 0 6.3 0.7 9.2 1.9 2.9 1.2 5.6 3 7.8 5.2 2.3 2.2 4 4.9 5.2 7.8 1.3 2.9 1.9 6.1 1.9 9.2z"/>
					<path id="Path_3494" class="s156" d="m257.7 33.1c0 9.7-5.8 18.5-14.8 22.2-9 3.7-19.3 1.7-26.2-5.2-6.9-6.9-8.9-17.2-5.2-26.2 3.7-8.9 12.5-14.8 22.2-14.8 3.1 0 6.3 0.6 9.2 1.8 2.9 1.2 5.5 3 7.8 5.2 2.2 2.3 4 4.9 5.2 7.8 1.2 3 1.8 6.1 1.8 9.2z"/>
					<path id="Path_3495" class="s174" d="m257.6 33.1c0 9.7-5.8 18.5-14.7 22.2-9 3.7-19.3 1.6-26.1-5.2-6.9-6.9-8.9-17.2-5.2-26.1 3.7-9 12.4-14.8 22.1-14.8 3.1 0 6.2 0.6 9.2 1.8 2.9 1.2 5.5 3 7.7 5.2 2.2 2.2 4 4.9 5.2 7.8 1.2 2.9 1.8 6 1.8 9.1z"/>
					<path id="Path_3496" class="s175" d="m257.6 33.1c0 9.7-5.9 18.4-14.8 22.1-8.9 3.7-19.2 1.6-26-5.2-6.8-6.8-8.9-17.1-5.2-26 3.7-8.9 12.4-14.7 22.1-14.7 3.1 0 6.2 0.6 9.1 1.8 2.9 1.2 5.6 2.9 7.8 5.1 2.2 2.3 3.9 4.9 5.1 7.8 1.2 2.9 1.9 6 1.9 9.1z"/>
					<path id="Path_3497" class="s176" d="m257.5 33.1c0 9.7-5.8 18.3-14.7 22-8.9 3.7-19.1 1.7-25.9-5.1-6.9-6.8-8.9-17.1-5.2-26 3.7-8.9 12.4-14.7 22-14.7 3.1 0 6.2 0.6 9.1 1.8 2.9 1.2 5.5 3 7.7 5.2 2.2 2.2 4 4.8 5.2 7.7 1.2 2.9 1.8 6 1.8 9.1z"/>
					<path id="Path_3498" class="s177" d="m257.4 33.1c0 9.6-5.8 18.3-14.6 22-8.9 3.6-19.1 1.6-25.9-5.2-6.8-6.8-8.8-17-5.1-25.8 3.6-8.9 12.3-14.7 21.9-14.7 3.1 0 6.2 0.6 9.1 1.8 2.8 1.2 5.5 2.9 7.7 5.2 2.2 2.2 3.9 4.8 5.1 7.7 1.2 2.8 1.8 5.9 1.8 9z"/>
					<path id="Path_3499" class="s153" d="m257.3 33.1c0 9.6-5.7 18.2-14.6 21.9-8.8 3.7-19 1.6-25.7-5.1-6.8-6.8-8.8-17-5.2-25.8 3.7-8.9 12.3-14.6 21.9-14.6 3.1 0 6.2 0.6 9 1.8 2.9 1.2 5.5 2.9 7.7 5.1 2.2 2.2 4 4.8 5.1 7.7 1.2 2.8 1.8 5.9 1.8 9z"/>
					<path id="Path_3500" class="s178" d="m257.3 33.1c0 9.6-5.8 18.2-14.6 21.8-8.8 3.7-18.9 1.7-25.7-5.1-6.7-6.7-8.8-16.9-5.1-25.7 3.6-8.8 12.2-14.6 21.8-14.6 3.1 0 6.2 0.7 9 1.8 2.9 1.2 5.5 3 7.7 5.2 2.2 2.1 3.9 4.7 5.1 7.6 1.2 2.9 1.8 5.9 1.8 9z"/>
					<path id="Path_3501" class="s152" d="m257.2 33.1c0 9.5-5.7 18.1-14.5 21.8-8.8 3.6-18.9 1.6-25.6-5.1-6.8-6.8-8.8-16.9-5.1-25.7 3.6-8.8 12.2-14.5 21.7-14.5 3.1 0 6.1 0.6 9 1.8 2.8 1.2 5.4 2.9 7.6 5.1 2.2 2.2 3.9 4.8 5.1 7.6 1.2 2.9 1.8 5.9 1.8 9z"/>
					<path id="Path_3502" class="s179" d="m257.1 33.1c0 9.5-5.7 18.1-14.4 21.7-8.8 3.6-18.9 1.6-25.6-5.1-6.7-6.7-8.7-16.8-5.1-25.5 3.7-8.8 12.2-14.5 21.7-14.5 3.1 0 6.1 0.6 9 1.8 2.8 1.1 5.4 2.9 7.6 5.1 2.1 2.1 3.9 4.7 5 7.6 1.2 2.8 1.8 5.9 1.8 8.9z"/>
					<path id="Path_3503" class="s180" d="m257.1 33.1c0 9.5-5.7 18-14.5 21.6-8.7 3.6-18.8 1.6-25.4-5-6.7-6.7-8.7-16.8-5.1-25.5 3.6-8.7 12.1-14.4 21.6-14.4 3.1 0 6.1 0.6 8.9 1.7 2.9 1.2 5.4 2.9 7.6 5.1 2.2 2.2 3.9 4.8 5.1 7.6 1.2 2.8 1.8 5.9 1.8 8.9z"/>
					<path id="Path_3504" class="s150" d="m257 33.1c0 9.5-5.7 18-14.4 21.6-8.7 3.6-18.7 1.6-25.4-5.1-6.7-6.7-8.6-16.7-5-25.4 3.6-8.7 12.1-14.4 21.5-14.4 3 0 6.1 0.6 8.9 1.8 2.8 1.2 5.4 2.9 7.6 5.1 2.1 2.1 3.8 4.7 5 7.5 1.2 2.8 1.8 5.9 1.8 8.9z"/>
					<path id="Path_3505" class="s181" d="m256.9 33.1c0 9.4-5.6 17.9-14.3 21.5-8.7 3.6-18.7 1.6-25.3-5-6.7-6.7-8.7-16.7-5.1-25.4 3.6-8.6 12.1-14.3 21.5-14.3 3 0 6.1 0.6 8.9 1.8 2.8 1.1 5.4 2.8 7.5 5 2.2 2.2 3.9 4.7 5 7.5 1.2 2.9 1.8 5.9 1.8 8.9z"/>
					<path id="Path_3506" class="s149" d="m256.8 33.1c0 9.4-5.6 17.8-14.2 21.4-8.7 3.6-18.7 1.6-25.3-5-6.6-6.6-8.6-16.6-5-25.2 3.6-8.7 12-14.3 21.4-14.3 3 0 6 0.6 8.9 1.7 2.8 1.2 5.3 2.9 7.5 5.1 2.1 2.1 3.8 4.7 5 7.5 1.1 2.8 1.7 5.8 1.7 8.8z"/>
					<path id="Path_3507" class="s182" d="m256.8 33.1c0 9.4-5.6 17.8-14.3 21.4-8.6 3.5-18.5 1.6-25.1-5-6.6-6.6-8.6-16.6-5-25.2 3.5-8.6 11.9-14.3 21.3-14.3 3 0 6 0.6 8.8 1.8 2.8 1.2 5.4 2.9 7.5 5 2.2 2.2 3.9 4.7 5 7.5 1.2 2.8 1.8 5.8 1.8 8.8z"/>
					<path id="Path_3508" class="s183" d="m256.7 33.1c0 9.3-5.6 17.7-14.2 21.3-8.6 3.6-18.5 1.6-25.1-5-6.6-6.6-8.5-16.5-5-25.1 3.6-8.6 12-14.2 21.3-14.2 3 0 6 0.6 8.8 1.8 2.8 1.1 5.3 2.8 7.5 5 2.1 2.1 3.8 4.6 5 7.4 1.1 2.8 1.7 5.8 1.7 8.8z"/>
					<path id="Path_3509" class="s147" d="m256.6 33.1c0 9.3-5.6 17.7-14.1 21.2-8.6 3.6-18.5 1.6-25-4.9-6.6-6.6-8.6-16.5-5-25 3.5-8.6 11.9-14.2 21.2-14.2 3 0 6 0.6 8.8 1.7 2.8 1.2 5.3 2.9 7.4 5 2.1 2.1 3.8 4.7 5 7.5 1.1 2.7 1.7 5.7 1.7 8.7z"/>
					<path id="Path_3510" class="s184" d="m256.6 33.1c0 9.3-5.6 17.6-14.2 21.2-8.5 3.5-18.3 1.6-24.9-5-6.5-6.5-8.5-16.4-4.9-24.9 3.5-8.6 11.8-14.1 21.1-14.1 3 0 6 0.5 8.7 1.7 2.8 1.1 5.3 2.8 7.5 5 2.1 2.1 3.8 4.6 4.9 7.4 1.2 2.8 1.8 5.7 1.8 8.7z"/>
					<path id="Path_3511" class="s146" d="m256.5 33.1c0 9.3-5.6 17.6-14.1 21.1-8.5 3.5-18.3 1.6-24.8-4.9-6.6-6.6-8.5-16.4-5-24.9 3.5-8.5 11.9-14.1 21.1-14.1 3 0 5.9 0.6 8.7 1.8 2.8 1.1 5.3 2.8 7.4 4.9 2.1 2.1 3.8 4.6 5 7.4 1.1 2.8 1.7 5.7 1.7 8.7z"/>
					<path id="Path_3512" class="s185" d="m256.4 33.1c0 9.2-5.5 17.5-14 21-8.5 3.6-18.3 1.6-24.8-4.9-6.5-6.5-8.4-16.3-4.9-24.8 3.5-8.5 11.8-14 21-14 3 0 5.9 0.6 8.7 1.7 2.7 1.2 5.2 2.8 7.4 5 2.1 2.1 3.7 4.6 4.9 7.3 1.1 2.8 1.7 5.7 1.7 8.7z"/>
					<path id="Path_3513" class="s145" d="m256.3 33.1c0 9.2-5.5 17.5-13.9 21-8.5 3.5-18.3 1.5-24.7-4.9-6.5-6.5-8.5-16.3-4.9-24.7 3.5-8.5 11.7-14 20.9-14 3 0 5.9 0.6 8.7 1.7 2.7 1.1 5.2 2.8 7.3 4.9 2.1 2.1 3.8 4.6 4.9 7.4 1.2 2.7 1.7 5.7 1.7 8.6z"/>
					<path id="Path_3514" class="s144" d="m256.3 33.1c0 9.2-5.5 17.4-14 20.9-8.4 3.5-18.1 1.6-24.6-4.9-6.4-6.5-8.4-16.2-4.9-24.6 3.5-8.5 11.8-14 20.9-14 3 0 5.9 0.6 8.6 1.8 2.8 1.1 5.3 2.8 7.4 4.9 2.1 2.1 3.7 4.5 4.9 7.3 1.1 2.7 1.7 5.7 1.7 8.6z"/>
					<path id="Path_3515" class="s186" d="m256.2 33.1c0 9.1-5.5 17.4-13.9 20.8-8.4 3.5-18.1 1.6-24.5-4.8-6.5-6.5-8.4-16.2-4.9-24.6 3.5-8.4 11.7-13.9 20.8-13.9 2.9 0 5.9 0.6 8.6 1.7 2.7 1.2 5.2 2.8 7.3 4.9 2.1 2.1 3.8 4.6 4.9 7.3 1.1 2.7 1.7 5.7 1.7 8.6z"/>
					<path id="Path_3516" class="s143" d="m256.1 33.1c0 9.1-5.4 17.3-13.8 20.8-8.4 3.4-18.1 1.5-24.5-4.9-6.4-6.4-8.3-16.1-4.8-24.5 3.4-8.3 11.6-13.8 20.7-13.8 2.9 0 5.9 0.6 8.6 1.7 2.7 1.1 5.2 2.8 7.3 4.9 2 2 3.7 4.5 4.8 7.2 1.2 2.8 1.7 5.7 1.7 8.6z"/>
					<path id="Path_3517" class="s187" d="m256.1 33.1c0 9.1-5.5 17.2-13.9 20.7-8.3 3.5-17.9 1.6-24.3-4.8-6.4-6.4-8.3-16.1-4.9-24.4 3.5-8.4 11.6-13.8 20.7-13.8 2.9 0 5.8 0.5 8.5 1.7 2.8 1.1 5.2 2.7 7.3 4.8 2.1 2.1 3.7 4.6 4.9 7.3 1.1 2.7 1.7 5.6 1.7 8.5z"/>
					<path id="Path_3518" class="s188" d="m256 33.1c0 9.1-5.4 17.2-13.8 20.6-8.3 3.5-17.9 1.6-24.3-4.8-6.4-6.4-8.3-16-4.8-24.3 3.4-8.3 11.6-13.8 20.6-13.8 2.9 0 5.8 0.6 8.5 1.7 2.7 1.1 5.2 2.8 7.3 4.9 2 2 3.7 4.5 4.8 7.2 1.1 2.7 1.7 5.6 1.7 8.5z"/>
					<path id="Path_3519" class="s141" d="m255.9 33.1c0 9-5.4 17.1-13.7 20.6-8.3 3.4-17.9 1.5-24.2-4.8-6.4-6.4-8.3-16-4.8-24.3 3.4-8.3 11.5-13.7 20.5-13.7 2.9 0 5.8 0.6 8.5 1.7 2.7 1.1 5.1 2.7 7.2 4.8 2.1 2.1 3.7 4.5 4.8 7.2 1.1 2.7 1.7 5.6 1.7 8.5z"/>
					<path id="Path_3520" class="s189" d="m255.8 33.1c0 9-5.4 17.1-13.6 20.5-8.3 3.4-17.8 1.5-24.2-4.8-6.3-6.3-8.2-15.9-4.8-24.2 3.4-8.2 11.5-13.6 20.5-13.6 2.9 0 5.8 0.5 8.5 1.7 2.7 1.1 5.1 2.7 7.2 4.8 2 2 3.6 4.5 4.8 7.2 1.1 2.6 1.6 5.5 1.6 8.4z"/>
					<path id="Path_3521" class="s190" d="m255.8 33.1c0 9-5.4 17-13.7 20.4-8.2 3.5-17.7 1.6-24-4.7-6.3-6.4-8.2-15.9-4.8-24.1 3.4-8.3 11.5-13.7 20.4-13.7 2.9 0 5.8 0.6 8.4 1.7 2.7 1.1 5.2 2.8 7.2 4.8 2.1 2.1 3.7 4.5 4.8 7.2 1.1 2.7 1.7 5.5 1.7 8.4z"/>
					<path id="Path_3522" class="s191" d="m255.7 33.1c0 8.9-5.4 17-13.6 20.4-8.2 3.4-17.7 1.5-24-4.8-6.3-6.3-8.2-15.8-4.8-24 3.5-8.2 11.5-13.6 20.4-13.6 2.9 0 5.7 0.6 8.4 1.7 2.7 1.1 5.1 2.7 7.2 4.8 2 2 3.6 4.4 4.7 7.1 1.1 2.7 1.7 5.5 1.7 8.4z"/>
					<path id="Path_3523" class="s192" d="m255.6 33.1c0 8.9-5.3 16.9-13.5 20.3-8.2 3.4-17.7 1.5-23.9-4.7-6.3-6.3-8.2-15.8-4.8-24 3.4-8.2 11.4-13.5 20.3-13.5 2.9 0 5.7 0.6 8.4 1.7 2.6 1.1 5.1 2.7 7.1 4.7 2 2.1 3.7 4.5 4.8 7.1 1.1 2.7 1.6 5.5 1.6 8.4z"/>
					<path id="Path_3524" class="s138" d="m255.6 33.1c0 8.9-5.4 16.9-13.5 20.2-8.2 3.4-17.6 1.6-23.9-4.7-6.2-6.3-8.1-15.7-4.7-23.8 3.4-8.2 11.3-13.5 20.2-13.5 2.9 0 5.7 0.5 8.4 1.6 2.6 1.1 5 2.7 7.1 4.8 2 2 3.6 4.4 4.7 7.1 1.1 2.6 1.7 5.5 1.7 8.3z"/>
					<path id="Path_3525" class="s193" d="m255.5 33.1c0 8.9-5.3 16.8-13.5 20.2-8.1 3.4-17.5 1.5-23.7-4.7-6.3-6.3-8.1-15.7-4.8-23.8 3.4-8.2 11.4-13.5 20.2-13.5 2.8 0 5.7 0.6 8.3 1.7 2.7 1.1 5.1 2.7 7.1 4.7 2 2 3.6 4.4 4.7 7.1 1.1 2.6 1.7 5.5 1.7 8.3z"/>
					<path id="Path_3526" class="s137" d="m255.4 33.1c0 8.8-5.3 16.7-13.4 20.1-8.1 3.4-17.5 1.5-23.7-4.7-6.2-6.2-8.1-15.6-4.7-23.7 3.4-8.1 11.3-13.4 20.1-13.4 2.8 0 5.7 0.6 8.3 1.7 2.6 1 5 2.6 7.1 4.7 2 2 3.6 4.4 4.7 7 1.1 2.7 1.6 5.5 1.6 8.3z"/>
					<path id="Path_3527" class="s136" d="m255.3 33.1c0 8.8-5.2 16.7-13.3 20-8.1 3.4-17.4 1.5-23.6-4.6-6.2-6.2-8.1-15.6-4.7-23.7 3.3-8.1 11.2-13.3 20-13.3 2.8 0 5.6 0.5 8.3 1.6 2.6 1.1 5 2.7 7 4.7 2 2 3.6 4.4 4.7 7 1.1 2.7 1.6 5.5 1.6 8.3z"/>
					<path id="Path_3528" class="s194" d="m255.3 33.1c0 8.8-5.3 16.6-13.4 20-8 3.3-17.3 1.5-23.5-4.7-6.2-6.2-8-15.5-4.7-23.5 3.4-8.1 11.3-13.4 20-13.4 2.8 0 5.6 0.6 8.2 1.7 2.7 1.1 5 2.7 7.1 4.7 2 2 3.5 4.4 4.6 7 1.1 2.6 1.7 5.4 1.7 8.2z"/>
					<path id="Path_3529" class="s195" d="m255.2 33.1c0 8.7-5.2 16.6-13.3 19.9-8 3.3-17.3 1.5-23.4-4.7-6.2-6.1-8-15.4-4.7-23.4 3.3-8 11.2-13.3 19.9-13.3 2.8 0 5.6 0.6 8.2 1.6 2.6 1.1 5 2.7 7 4.7 2 2 3.6 4.4 4.7 7 1 2.6 1.6 5.4 1.6 8.2z"/>
					<path id="Path_3530" class="s134" d="m255.1 33.1c0 8.7-5.2 16.5-13.2 19.8-8 3.4-17.2 1.5-23.4-4.6-6.1-6.1-7.9-15.4-4.6-23.4 3.3-8 11.1-13.2 19.8-13.2 2.8 0 5.6 0.5 8.2 1.6 2.6 1.1 5 2.7 7 4.7 1.9 2 3.5 4.3 4.6 6.9 1.1 2.6 1.6 5.4 1.6 8.2z"/>
					<path id="Path_3531" class="s196" d="m255.1 33.1c0 8.7-5.2 16.5-13.2 19.8-8 3.3-17.2 1.5-23.3-4.7-6.1-6.1-8-15.3-4.7-23.2 3.3-8 11.1-13.2 19.8-13.2 2.8 0 5.6 0.5 8.2 1.6 2.6 1.1 4.9 2.6 6.9 4.6 2 2 3.6 4.4 4.6 7 1.1 2.5 1.7 5.3 1.7 8.1z"/>
					<path id="Path_3532" class="s197" d="m255 33.1c0 8.7-5.2 16.4-13.2 19.7-7.9 3.3-17.1 1.5-23.2-4.6-6.1-6.1-7.9-15.3-4.6-23.2 3.3-8 11.1-13.2 19.7-13.2 2.8 0 5.6 0.6 8.1 1.6 2.6 1.1 5 2.7 7 4.7 1.9 1.9 3.5 4.3 4.6 6.9 1 2.6 1.6 5.3 1.6 8.1z"/>
					<path id="Path_3533" class="s132" d="m254.9 33.1c0 8.6-5.2 16.4-13.1 19.7-7.9 3.2-17.1 1.4-23.1-4.7-6.1-6-7.9-15.2-4.6-23.1 3.3-7.9 11-13.1 19.6-13.1 2.8 0 5.5 0.5 8.1 1.6 2.6 1.1 4.9 2.6 6.9 4.6 2 2 3.5 4.3 4.6 6.9 1.1 2.6 1.6 5.3 1.6 8.1z"/>
					<path id="Path_3534" class="s198" d="m254.8 33.1c0 8.6-5.1 16.3-13 19.6-7.9 3.3-17 1.4-23.1-4.6-6-6.1-7.8-15.2-4.6-23.1 3.3-7.9 11-13 19.6-13 2.8 0 5.5 0.5 8.1 1.6 2.6 1 4.9 2.6 6.9 4.6 1.9 1.9 3.5 4.3 4.5 6.8 1.1 2.6 1.6 5.4 1.6 8.1z"/>
					<path id="Path_3535" class="s131" d="m254.8 33.1c0 8.6-5.2 16.3-13 19.5-7.9 3.3-17 1.5-23-4.6-6.1-6-7.9-15.1-4.6-22.9 3.3-7.9 11-13.1 19.5-13.1 2.8 0 5.5 0.6 8.1 1.6 2.5 1.1 4.8 2.7 6.8 4.6 2 2 3.5 4.3 4.6 6.9 1 2.5 1.6 5.3 1.6 8z"/>
					<path id="Path_3536" class="s199" d="m254.7 33.1c0 8.5-5.1 16.2-13 19.5-7.8 3.2-16.9 1.4-22.9-4.6-6-6-7.8-15.1-4.5-22.9 3.2-7.9 10.9-13 19.4-13 2.7 0 5.5 0.6 8 1.6 2.6 1.1 4.9 2.6 6.9 4.6 1.9 1.9 3.5 4.2 4.5 6.8 1.1 2.5 1.6 5.3 1.6 8z"/>
					<path id="Path_3537" class="s200" d="m254.6 33.1c0 8.5-5.1 16.1-12.9 19.4-7.8 3.2-16.8 1.4-22.8-4.6-6-5.9-7.8-15-4.6-22.8 3.3-7.8 10.9-12.9 19.4-12.9 2.7 0 5.5 0.5 8 1.6 2.5 1 4.9 2.6 6.8 4.5 1.9 2 3.5 4.3 4.5 6.8 1.1 2.6 1.6 5.3 1.6 8z"/>
					<path id="Path_3538" class="s129" d="m254.6 33.1c0 8.5-5.1 16.1-12.9 19.3-7.8 3.3-16.8 1.5-22.8-4.5-5.9-6-7.7-15-4.5-22.8 3.2-7.8 10.8-12.8 19.3-12.8 2.7 0 5.4 0.5 8 1.5 2.5 1.1 4.8 2.6 6.7 4.6 2 1.9 3.5 4.2 4.6 6.7 1 2.6 1.6 5.3 1.6 8z"/>
					<path id="Path_3539" class="s201" d="m254.5 33.1c0 8.4-5.1 16-12.9 19.3-7.7 3.2-16.7 1.4-22.6-4.6-6-5.9-7.8-14.9-4.5-22.6 3.2-7.8 10.8-12.9 19.2-12.9 2.7 0 5.4 0.6 7.9 1.6 2.6 1.1 4.9 2.6 6.8 4.5 1.9 2 3.5 4.2 4.5 6.8 1.1 2.5 1.6 5.2 1.6 7.9z"/>
					<path id="Path_3540" class="s202" d="m254.4 33.1c0 8.4-5 16-12.8 19.2-7.7 3.2-16.6 1.4-22.6-4.5-5.9-5.9-7.7-14.9-4.5-22.6 3.2-7.8 10.8-12.8 19.2-12.8 2.7 0 5.4 0.5 7.9 1.6 2.5 1 4.8 2.5 6.7 4.5 2 1.9 3.5 4.2 4.5 6.7 1.1 2.5 1.6 5.2 1.6 7.9z"/>
					<path id="Path_3541" class="s127" d="m254.3 33.1c0 8.4-5 15.9-12.7 19.1-7.7 3.2-16.6 1.5-22.5-4.5-5.9-5.9-7.7-14.8-4.5-22.5 3.2-7.7 10.7-12.7 19.1-12.7 2.7 0 5.4 0.5 7.9 1.5 2.5 1.1 4.8 2.6 6.7 4.5 1.9 1.9 3.4 4.2 4.5 6.7 1 2.5 1.5 5.2 1.5 7.9z"/>
					<path id="Path_3542" class="s203" d="m254.3 33.1c0 8.4-5 15.9-12.7 19.1-7.7 3.1-16.6 1.4-22.5-4.5-5.9-5.9-7.6-14.8-4.4-22.4 3.2-7.7 10.7-12.8 19-12.8 2.7 0 5.4 0.6 7.9 1.6 2.5 1 4.7 2.6 6.6 4.5 2 1.9 3.5 4.2 4.5 6.7 1 2.5 1.6 5.1 1.6 7.8z"/>
					<path id="Path_3543" class="s204" d="m254.2 33.1c0 8.3-5 15.8-12.7 19-7.6 3.2-16.5 1.4-22.3-4.5-5.9-5.8-7.6-14.7-4.5-22.3 3.2-7.7 10.7-12.7 19-12.7 2.7 0 5.3 0.5 7.8 1.6 2.5 1 4.8 2.5 6.7 4.4 1.9 1.9 3.4 4.2 4.4 6.7 1.1 2.5 1.6 5.1 1.6 7.8z"/>
					<path id="Path_3544" class="s205" d="m254.1 33.1c0 8.3-4.9 15.8-12.6 18.9-7.6 3.2-16.4 1.4-22.3-4.4-5.8-5.9-7.6-14.7-4.4-22.3 3.2-7.6 10.6-12.6 18.9-12.6 2.7 0 5.3 0.5 7.8 1.5 2.5 1.1 4.7 2.6 6.6 4.5 1.9 1.9 3.5 4.1 4.5 6.6 1 2.5 1.5 5.1 1.5 7.8z"/>
					<path id="Path_3545" class="s206" d="m254.1 33.1c0 8.3-5 15.7-12.6 18.9-7.6 3.1-16.4 1.4-22.2-4.5-5.8-5.8-7.6-14.6-4.4-22.2 3.1-7.6 10.5-12.5 18.8-12.5 2.7 0 5.3 0.5 7.8 1.5 2.5 1 4.7 2.5 6.6 4.4 1.9 1.9 3.4 4.2 4.4 6.6 1 2.5 1.6 5.2 1.6 7.8z"/>
					<path id="Path_3546" class="s207" d="m254 33.1c0 8.2-5 15.7-12.5 18.8-7.6 3.1-16.4 1.4-22.2-4.4-5.8-5.8-7.5-14.6-4.4-22.1 3.2-7.6 10.6-12.6 18.8-12.6 2.7 0 5.3 0.5 7.8 1.6 2.4 1 4.7 2.5 6.5 4.4 1.9 1.9 3.4 4.1 4.4 6.6 1.1 2.4 1.6 5.1 1.6 7.7z"/>
					<path id="Path_3547" class="s123" d="m253.9 33.1c0 8.2-4.9 15.6-12.5 18.7-7.5 3.2-16.2 1.4-22-4.4-5.8-5.7-7.5-14.4-4.4-22 3.1-7.6 10.5-12.5 18.7-12.5 2.6 0 5.3 0.5 7.7 1.5 2.5 1.1 4.7 2.5 6.6 4.4 1.9 1.9 3.4 4.1 4.4 6.6 1 2.4 1.5 5.1 1.5 7.7z"/>
					<path id="Path_3548" class="s208" d="m253.8 33.1c0 8.2-4.9 15.5-12.4 18.7-7.5 3.1-16.2 1.4-22-4.4-5.7-5.8-7.5-14.4-4.3-22 3.1-7.5 10.4-12.4 18.6-12.4 2.6 0 5.3 0.5 7.7 1.5 2.4 1 4.7 2.5 6.5 4.4 1.9 1.8 3.4 4.1 4.4 6.5 1 2.5 1.5 5.1 1.5 7.7z"/>
					<path id="Path_3549" class="s209" d="m253.8 33.1c0 8.2-4.9 15.5-12.4 18.6-7.5 3.1-16.2 1.4-21.9-4.4-5.8-5.7-7.5-14.3-4.4-21.9 3.1-7.5 10.5-12.4 18.6-12.4 2.6 0 5.2 0.6 7.7 1.6 2.4 1 4.6 2.5 6.5 4.3 1.9 1.9 3.3 4.1 4.3 6.5 1.1 2.5 1.6 5.1 1.6 7.7z"/>
					<path id="Path_3550" class="s210" d="m253.7 33.1c0 8.1-4.9 15.4-12.4 18.5-7.4 3.1-16 1.4-21.8-4.3-5.7-5.7-7.4-14.3-4.3-21.8 3.1-7.5 10.4-12.4 18.5-12.4 2.6 0 5.2 0.5 7.6 1.5 2.5 1 4.7 2.5 6.5 4.4 1.9 1.8 3.4 4 4.4 6.5 1 2.4 1.5 5 1.5 7.6z"/>
					<path id="Path_3551" class="s120" d="m253.6 33.1c0 8.1-4.8 15.4-12.3 18.5-7.4 3.1-16 1.3-21.7-4.4-5.7-5.7-7.4-14.2-4.3-21.7 3-7.5 10.3-12.3 18.4-12.3 2.6 0 5.2 0.5 7.6 1.5 2.4 1 4.6 2.5 6.5 4.3 1.8 1.9 3.3 4.1 4.3 6.5 1 2.4 1.5 5 1.5 7.6z"/>
					<path id="Path_3552" class="s211" d="m253.6 33.1c0 8.1-4.9 15.3-12.3 18.4-7.4 3.1-16 1.4-21.7-4.3-5.7-5.7-7.4-14.2-4.3-21.7 3.1-7.4 10.3-12.2 18.4-12.2 2.6 0 5.2 0.5 7.6 1.5 2.4 1 4.6 2.4 6.4 4.3 1.9 1.8 3.4 4 4.3 6.4 1 2.4 1.6 5 1.6 7.6z"/>
					<path id="Path_3553" class="s119" d="m253.5 33.1c0 8-4.8 15.3-12.2 18.3-7.4 3.1-16 1.4-21.6-4.3-5.7-5.6-7.4-14.1-4.3-21.5 3.1-7.4 10.3-12.3 18.3-12.3 2.6 0 5.2 0.5 7.6 1.5 2.4 1 4.6 2.5 6.4 4.3 1.8 1.9 3.3 4.1 4.3 6.5 1 2.4 1.5 4.9 1.5 7.5z"/>
					<path id="Path_3554" class="s118" d="m253.4 33.1c0 8-4.8 15.2-12.2 18.3-7.3 3-15.8 1.3-21.5-4.3-5.6-5.7-7.3-14.1-4.2-21.5 3-7.4 10.2-12.2 18.2-12.2 2.6 0 5.1 0.5 7.5 1.5 2.4 1 4.6 2.4 6.4 4.3 1.9 1.8 3.3 4 4.3 6.4 1 2.4 1.5 4.9 1.5 7.5z"/>
					<path id="Path_3555" class="s212" d="m253.4 33.1c0 8-4.8 15.2-12.2 18.2-7.3 3-15.8 1.4-21.4-4.3-5.6-5.6-7.3-14-4.3-21.4 3.1-7.3 10.2-12.1 18.2-12.1 2.6 0 5.1 0.5 7.5 1.5 2.4 1 4.6 2.4 6.4 4.2 1.8 1.9 3.3 4 4.3 6.4 0.9 2.4 1.5 4.9 1.5 7.5z"/>
					<path id="Path_3556" class="s213" d="m253.3 33.1c0 8-4.8 15.1-12.1 18.1-7.3 3.1-15.8 1.4-21.4-4.2-5.6-5.6-7.2-14-4.2-21.4 3-7.3 10.2-12.1 18.1-12.1 2.6 0 5.1 0.5 7.5 1.5 2.4 1 4.5 2.5 6.3 4.3 1.9 1.8 3.3 4 4.3 6.3 1 2.4 1.5 5 1.5 7.5z"/>
					<path id="Path_3557" class="s214" d="m253.2 33.1c0 7.9-4.7 15-12 18.1-7.3 3-15.7 1.3-21.3-4.3-5.6-5.5-7.3-13.9-4.2-21.2 3-7.3 10.1-12.1 18-12.1 2.6 0 5.1 0.5 7.5 1.5 2.3 1 4.5 2.4 6.3 4.2 1.8 1.8 3.2 4 4.2 6.4 1 2.3 1.5 4.9 1.5 7.4z"/>
					<path id="Path_3558" class="s215" d="m253.1 33.1c0 7.9-4.7 15-12 18-7.2 3-15.6 1.3-21.2-4.2-5.5-5.6-7.2-13.9-4.2-21.2 3-7.3 10.1-12 18-12 2.5 0 5.1 0.5 7.4 1.5 2.4 0.9 4.5 2.4 6.3 4.2 1.8 1.8 3.3 3.9 4.3 6.3 0.9 2.3 1.4 4.9 1.4 7.4z"/>
					<path id="Path_3559" class="s216" d="m253.1 33.1c0 7.9-4.8 14.9-12 17.9-7.2 3-15.6 1.4-21.1-4.2-5.6-5.5-7.2-13.8-4.2-21.1 3-7.2 10.1-11.9 17.9-11.9 2.5 0 5.1 0.5 7.4 1.4 2.4 1 4.5 2.4 6.3 4.2 1.8 1.8 3.2 4 4.2 6.3 1 2.4 1.5 4.9 1.5 7.4z"/>
					<path id="Path_3560" class="s114" d="m253 33.1c0 7.8-4.7 14.9-11.9 17.9-7.2 3-15.5 1.3-21.1-4.2-5.5-5.5-7.1-13.8-4.1-21.1 2.9-7.2 10-11.9 17.8-11.9 2.5 0 5 0.5 7.4 1.5 2.3 1 4.4 2.4 6.2 4.2 1.8 1.8 3.3 3.9 4.2 6.2 1 2.4 1.5 4.9 1.5 7.4z"/>
					<path id="Path_3561" class="s113" d="m252.9 33.1c0 7.8-4.7 14.8-11.9 17.8-7.1 3-15.4 1.3-20.9-4.2-5.5-5.5-7.2-13.7-4.2-20.9 3-7.2 10-11.9 17.8-11.9 2.5 0 5 0.5 7.3 1.5 2.4 0.9 4.5 2.3 6.3 4.1 1.8 1.8 3.2 3.9 4.2 6.3 0.9 2.3 1.4 4.8 1.4 7.3z"/>
					<path id="Path_3562" class="s217" d="m252.9 33.1c0 7.8-4.7 14.8-11.9 17.7-7.1 3-15.4 1.4-20.9-4.1-5.4-5.5-7.1-13.7-4.1-20.9 2.9-7.2 9.9-11.8 17.7-11.8 2.5 0 5 0.5 7.3 1.4 2.3 1 4.5 2.4 6.2 4.2 1.8 1.8 3.2 3.9 4.2 6.2 1 2.3 1.5 4.8 1.5 7.3z"/>
					<path id="Path_3563" class="s112" d="m252.8 33.1c0 7.8-4.7 14.7-11.8 17.7-7.1 2.9-15.4 1.3-20.8-4.2-5.5-5.4-7.1-13.6-4.2-20.8 3-7.1 10-11.8 17.7-11.8 2.5 0 5 0.5 7.3 1.5 2.3 1 4.4 2.4 6.2 4.1 1.8 1.8 3.2 3.9 4.1 6.2 1 2.3 1.5 4.8 1.5 7.3z"/>
					<path id="Path_3564" class="s111" d="m252.7 33.1c0 7.7-4.6 14.7-11.7 17.6-7.1 3-15.3 1.3-20.8-4.1-5.4-5.5-7-13.6-4.1-20.7 3-7.2 9.9-11.8 17.6-11.8 2.5 0 5 0.5 7.3 1.5 2.3 0.9 4.4 2.3 6.1 4.1 1.8 1.7 3.2 3.8 4.2 6.2 0.9 2.3 1.4 4.7 1.4 7.2z"/>
					<path id="Path_3565" class="s218" d="m252.6 33.1c0 7.7-4.6 14.6-11.7 17.5-7 3-15.2 1.4-20.6-4.1-5.4-5.4-7.1-13.5-4.1-20.6 2.9-7.1 9.8-11.7 17.5-11.7 2.5 0 4.9 0.5 7.2 1.4 2.3 1 4.4 2.4 6.2 4.1 1.7 1.8 3.1 3.9 4.1 6.2 0.9 2.3 1.4 4.7 1.4 7.2z"/>
					<path id="Path_3566" class="s219" d="m252.6 33.1c0 7.7-4.6 14.6-11.7 17.5-7 2.9-15.2 1.3-20.6-4.1-5.4-5.4-7-13.5-4.1-20.6 3-7 9.9-11.6 17.5-11.6 2.5 0 4.9 0.4 7.2 1.4 2.3 0.9 4.4 2.3 6.1 4.1 1.8 1.7 3.2 3.8 4.1 6.1 1 2.3 1.5 4.8 1.5 7.2z"/>
					<path id="Path_3567" class="s220" d="m252.5 33.1c0 7.6-4.6 14.5-11.6 17.4-7 2.9-15.1 1.3-20.5-4.1-5.4-5.3-7-13.4-4.1-20.5 2.9-7 9.8-11.6 17.4-11.6 2.5 0 4.9 0.5 7.2 1.5 2.3 0.9 4.3 2.3 6.1 4 1.7 1.8 3.1 3.9 4.1 6.1 0.9 2.3 1.4 4.8 1.4 7.2z"/>
					<path id="Path_3568" class="s108" d="m252.4 33.1c0 7.6-4.5 14.4-11.5 17.3-7 2.9-15.1 1.3-20.5-4-5.3-5.4-6.9-13.4-4-20.4 2.9-7 9.7-11.6 17.3-11.6 2.4 0 4.9 0.5 7.2 1.4 2.2 1 4.3 2.3 6 4.1 1.8 1.7 3.2 3.8 4.1 6.1 0.9 2.2 1.4 4.7 1.4 7.1z"/>
					<path id="Path_3569" class="s221" d="m252.4 33.1c0 7.6-4.6 14.4-11.6 17.3-6.9 2.9-15 1.3-20.3-4.1-5.3-5.3-6.9-13.3-4.1-20.3 2.9-7 9.7-11.5 17.3-11.5 2.4 0 4.9 0.4 7.1 1.4 2.3 0.9 4.4 2.3 6.1 4 1.7 1.8 3.1 3.8 4 6.1 1 2.3 1.5 4.7 1.5 7.1z"/>
					<path id="Path_3570" class="s222" d="m252.3 33.1c0 7.6-4.5 14.3-11.5 17.2-6.9 2.9-14.9 1.3-20.3-4-5.3-5.3-6.9-13.3-4-20.3 2.9-6.9 9.7-11.5 17.2-11.5 2.4 0 4.8 0.5 7.1 1.5 2.3 0.9 4.3 2.3 6 4 1.8 1.7 3.1 3.8 4.1 6 0.9 2.3 1.4 4.7 1.4 7.1z"/>
					<path id="Path_3571" class="s223" d="m252.2 33.1c0 7.5-4.5 14.3-11.4 17.1-6.9 2.9-14.9 1.3-20.2-4-5.3-5.3-6.9-13.2-4-20.2 2.8-6.9 9.6-11.4 17.1-11.4 2.4 0 4.8 0.5 7.1 1.4 2.2 1 4.3 2.3 6 4 1.7 1.8 3.1 3.8 4 6 0.9 2.3 1.4 4.7 1.4 7.1z"/>
					<path id="Path_3572" class="s105" d="m252.1 33.1c0 7.5-4.5 14.2-11.4 17.1-6.8 2.8-14.8 1.3-20.1-4-5.2-5.3-6.8-13.2-4-20.1 2.9-6.9 9.6-11.4 17.1-11.4 2.4 0 4.8 0.5 7 1.4 2.3 0.9 4.3 2.3 6 4 1.7 1.7 3.1 3.7 4 6 1 2.2 1.4 4.6 1.4 7z"/>
					<path id="Path_3573" class="s225" d="m252.1 33.1c0 7.5-4.5 14.2-11.4 17-6.8 2.9-14.8 1.3-20-4-5.3-5.2-6.8-13.1-4-20 2.9-6.9 9.6-11.3 17-11.3 2.4 0 4.8 0.4 7 1.4 2.2 0.9 4.3 2.2 6 3.9 1.7 1.7 3 3.8 4 6 0.9 2.2 1.4 4.6 1.4 7z"/>
					<path id="Path_3574" class="s226" d="m252 33.1c0 7.4-4.5 14.1-11.3 16.9-6.8 2.9-14.7 1.3-20-3.9-5.2-5.3-6.8-13.1-3.9-20 2.8-6.8 9.5-11.3 16.9-11.3 2.4 0 4.8 0.5 7 1.4 2.2 0.9 4.2 2.3 5.9 4 1.7 1.7 3.1 3.7 4 5.9 0.9 2.2 1.4 4.6 1.4 7z"/>
					<path id="Path_3575" class="s227" d="m251.9 33.1c0 7.4-4.4 14.1-11.2 16.9-6.8 2.8-14.7 1.2-19.9-4-5.2-5.2-6.8-13-4-19.8 2.9-6.9 9.5-11.3 16.9-11.3 2.4 0 4.8 0.5 7 1.4 2.2 0.9 4.2 2.2 5.9 3.9 1.7 1.7 3 3.7 3.9 6 1 2.2 1.4 4.5 1.4 6.9z"/>
					<path id="Path_3576" class="s228" d="m251.9 33.1c0 7.4-4.5 14-11.3 16.8-6.7 2.8-14.6 1.3-19.8-3.9-5.2-5.2-6.7-13-3.9-19.8 2.8-6.8 9.4-11.2 16.8-11.2 2.4 0 4.7 0.4 6.9 1.3 2.2 1 4.2 2.3 5.9 4 1.7 1.7 3.1 3.7 4 5.9 0.9 2.2 1.4 4.5 1.4 6.9z"/>
					<path id="Path_3577" class="s101" d="m251.8 33.1c0 7.4-4.4 14-11.2 16.8-6.8 2.8-14.5 1.2-19.7-4-5.2-5.1-6.7-12.9-3.9-19.7 2.8-6.8 9.4-11.2 16.7-11.2 2.4 0 4.7 0.5 6.9 1.4 2.2 0.9 4.2 2.3 5.9 3.9 1.7 1.7 3 3.7 3.9 5.9 0.9 2.2 1.4 4.6 1.4 6.9z"/>
					<path id="Path_3578" class="s100" d="m251.7 33.1c0 7.3-4.4 13.9-11.1 16.7-6.7 2.8-14.5 1.2-19.7-3.9-5.1-5.2-6.7-12.9-3.9-19.7 2.8-6.7 9.4-11.1 16.7-11.1 2.4 0 4.7 0.5 6.9 1.4 2.2 0.9 4.2 2.2 5.8 3.9 1.7 1.7 3 3.6 3.9 5.8 0.9 2.2 1.4 4.6 1.4 6.9z"/>
					<path id="Path_3579" class="s99" d="m251.6 33.1c0 7.3-4.3 13.8-11 16.6-6.8 2.8-14.5 1.3-19.6-3.9-5.1-5.1-6.7-12.8-3.9-19.5 2.8-6.7 9.3-11.1 16.6-11.1 2.3 0 4.7 0.4 6.9 1.3 2.1 0.9 4.1 2.3 5.8 3.9 1.6 1.7 3 3.7 3.9 5.9 0.9 2.1 1.3 4.5 1.3 6.8z"/>
					<path id="Path_3580" class="s229" d="m251.6 33.1c0 7.3-4.4 13.8-11.1 16.6-6.7 2.7-14.3 1.2-19.5-3.9-5.1-5.1-6.6-12.8-3.8-19.5 2.7-6.7 9.3-11 16.5-11 2.3 0 4.7 0.4 6.8 1.3 2.2 0.9 4.2 2.2 5.8 3.9 1.7 1.6 3 3.6 3.9 5.8 0.9 2.2 1.4 4.5 1.4 6.8z"/>
					<path id="Path_3581" class="s230" d="m251.5 33.1c0 7.2-4.3 13.7-11 16.5-6.7 2.7-14.3 1.2-19.4-3.9-5.1-5.1-6.6-12.7-3.9-19.4 2.8-6.6 9.3-11 16.5-11 2.3 0 4.6 0.5 6.8 1.4 2.2 0.9 4.1 2.2 5.8 3.8 1.6 1.7 2.9 3.7 3.8 5.8 0.9 2.2 1.4 4.5 1.4 6.8z"/>
					<path id="Path_3582" class="s97" d="m251.4 33.1c0 7.2-4.3 13.7-10.9 16.4-6.7 2.8-14.3 1.2-19.4-3.8-5-5.1-6.5-12.7-3.8-19.4 2.7-6.6 9.2-10.9 16.4-10.9 2.3 0 4.6 0.5 6.8 1.3 2.1 0.9 4.1 2.2 5.7 3.9 1.7 1.6 3 3.6 3.9 5.7 0.9 2.2 1.3 4.5 1.3 6.8z"/>
					<path id="Path_3583" class="s231" d="m251.4 33.1c0 7.2-4.4 13.6-11 16.4-6.6 2.7-14.2 1.2-19.2-3.9-5.1-5-6.6-12.6-3.8-19.2 2.7-6.6 9.1-10.9 16.3-10.9 2.3 0 4.6 0.4 6.7 1.3 2.2 0.9 4.1 2.2 5.8 3.8 1.6 1.7 2.9 3.6 3.8 5.8 0.9 2.1 1.4 4.4 1.4 6.7z"/>
					<path id="Path_3584" class="s95" d="m251.3 33.1c0 7.1-4.3 13.6-10.9 16.3-6.6 2.7-14.1 1.2-19.2-3.8-5-5.1-6.5-12.6-3.8-19.2 2.8-6.6 9.2-10.9 16.3-10.9 2.3 0 4.6 0.5 6.7 1.4 2.2 0.9 4.1 2.2 5.7 3.8 1.7 1.6 3 3.6 3.8 5.7 0.9 2.1 1.4 4.4 1.4 6.7z"/>
					<path id="Path_3585" class="s232" d="m251.2 33.1c0 7.1-4.3 13.5-10.8 16.2-6.6 2.7-14.1 1.2-19.1-3.8-5-5-6.5-12.5-3.8-19.1 2.7-6.5 9.1-10.8 16.2-10.8 2.3 0 4.6 0.5 6.7 1.3 2.1 0.9 4.1 2.2 5.7 3.8 1.6 1.7 2.9 3.6 3.8 5.7 0.9 2.2 1.3 4.4 1.3 6.7z"/>
					<path id="Path_3586" class="s233" d="m251.1 33.1c0 7.1-4.2 13.5-10.7 16.2-6.6 2.7-14.1 1.2-19.1-3.8-4.9-5-6.4-12.5-3.7-19 2.7-6.6 9-10.8 16.1-10.8 2.3 0 4.5 0.4 6.7 1.3 2.1 0.9 4 2.2 5.6 3.8 1.6 1.6 2.9 3.5 3.8 5.7 0.9 2.1 1.3 4.3 1.3 6.6z"/>
					<path id="Path_3587" class="s93" d="m251.1 33.1c0 7.1-4.3 13.4-10.8 16.1-6.5 2.7-13.9 1.2-18.9-3.8-5-4.9-6.5-12.4-3.8-18.9 2.7-6.5 9.1-10.7 16.1-10.7 2.3 0 4.5 0.4 6.6 1.3 2.1 0.8 4.1 2.1 5.7 3.7 1.6 1.7 2.9 3.6 3.7 5.7 0.9 2.1 1.4 4.3 1.4 6.6z"/>
					<path id="Path_3588" class="s92" d="m251 33.1c0 7-4.2 13.3-10.7 16-6.5 2.7-13.9 1.2-18.9-3.7-4.9-5-6.4-12.4-3.7-18.9 2.7-6.5 9-10.7 16-10.7 2.3 0 4.5 0.5 6.6 1.3 2.1 0.9 4 2.2 5.6 3.8 1.6 1.6 2.9 3.5 3.8 5.6 0.8 2.1 1.3 4.4 1.3 6.6z"/>
					<path id="Path_3589" class="s234" d="m250.9 33.1c0 7-4.2 13.3-10.6 16-6.5 2.6-13.9 1.2-18.8-3.8-4.9-4.9-6.4-12.3-3.7-18.8 2.6-6.4 8.9-10.6 15.9-10.6 2.3 0 4.5 0.4 6.6 1.3 2.1 0.9 4 2.1 5.6 3.7 1.6 1.6 2.8 3.5 3.7 5.6 0.9 2.1 1.3 4.4 1.3 6.6z"/>
					<path id="Path_3590" class="s235" d="m250.9 33.1c0 7-4.2 13.2-10.6 15.9-6.5 2.7-13.8 1.2-18.7-3.7-5-4.9-6.4-12.3-3.8-18.7 2.7-6.4 8.9-10.6 15.9-10.6 2.2 0 4.5 0.4 6.6 1.3 2 0.8 3.9 2.1 5.5 3.7 1.6 1.6 2.9 3.5 3.7 5.6 0.9 2 1.4 4.3 1.4 6.5z"/>
					<path id="Path_3591" class="s236" d="m250.8 33.1c0 6.9-4.2 13.2-10.6 15.8-6.4 2.7-13.7 1.2-18.6-3.7-4.9-4.9-6.4-12.2-3.7-18.6 2.6-6.4 8.9-10.6 15.8-10.6 2.2 0 4.5 0.5 6.5 1.3 2.1 0.9 4 2.2 5.6 3.7 1.6 1.6 2.8 3.5 3.7 5.6 0.8 2.1 1.3 4.3 1.3 6.5z"/>
					<path id="Path_3592" class="s237" d="m250.7 33.1c0 6.9-4.1 13.1-10.5 15.8-6.4 2.6-13.7 1.1-18.5-3.7-4.9-4.9-6.4-12.2-3.7-18.6 2.6-6.3 8.8-10.5 15.7-10.5 2.2 0 4.4 0.4 6.5 1.3 2.1 0.9 3.9 2.1 5.5 3.7 1.6 1.6 2.9 3.5 3.7 5.5 0.9 2.1 1.3 4.3 1.3 6.5z"/>
					<path id="Path_3593" class="s88" d="m250.6 33.1c0 6.9-4.1 13.1-10.4 15.7-6.4 2.6-13.6 1.2-18.5-3.7-4.8-4.8-6.3-12.1-3.7-18.5 2.7-6.3 8.8-10.4 15.7-10.4 2.2 0 4.4 0.4 6.5 1.3 2 0.8 3.9 2.1 5.5 3.6 1.5 1.6 2.8 3.5 3.6 5.5 0.9 2.1 1.3 4.3 1.3 6.5z"/>
					<path id="Path_3594" class="s238" d="m250.6 33.1c0 6.9-4.1 13-10.5 15.6-6.3 2.6-13.5 1.2-18.3-3.6-4.9-4.9-6.3-12.1-3.7-18.4 2.6-6.3 8.8-10.4 15.6-10.4 2.2 0 4.4 0.4 6.4 1.2 2.1 0.9 4 2.1 5.5 3.7 1.6 1.6 2.8 3.4 3.7 5.5 0.8 2 1.3 4.2 1.3 6.4z"/>
					<path id="Path_3595" class="s86" d="m250.5 33.1c0 6.8-4.1 13-10.4 15.6-6.3 2.6-13.5 1.1-18.3-3.7-4.8-4.8-6.2-12-3.6-18.3 2.6-6.3 8.7-10.4 15.5-10.4 2.2 0 4.4 0.5 6.4 1.3 2.1 0.8 3.9 2.1 5.5 3.6 1.5 1.6 2.8 3.5 3.6 5.5 0.9 2 1.3 4.2 1.3 6.4z"/>
					<path id="Path_3596" class="s85" d="m250.4 33.1c0 6.8-4.1 12.9-10.3 15.5-6.3 2.6-13.5 1.2-18.2-3.6-4.8-4.8-6.3-12-3.7-18.3 2.6-6.2 8.7-10.3 15.5-10.3 2.2 0 4.4 0.4 6.4 1.3 2 0.8 3.9 2 5.4 3.6 1.6 1.6 2.8 3.4 3.6 5.4 0.9 2.1 1.3 4.2 1.3 6.4z"/>
					<path id="Path_3597" class="s84" d="m250.4 33.1c0 6.8-4.1 12.9-10.3 15.4-6.3 2.6-13.4 1.2-18.2-3.6-4.8-4.7-6.2-11.9-3.6-18.1 2.6-6.3 8.6-10.3 15.4-10.3 2.2 0 4.3 0.4 6.4 1.2 2 0.9 3.8 2.1 5.4 3.6 1.5 1.6 2.7 3.4 3.6 5.5 0.8 2 1.3 4.1 1.3 6.3z"/>
					<path id="Path_3598" class="s239" d="m250.3 33.1c0 6.7-4.1 12.8-10.3 15.4-6.2 2.5-13.3 1.1-18-3.6-4.8-4.8-6.2-11.9-3.6-18.1 2.5-6.2 8.6-10.3 15.3-10.3 2.2 0 4.3 0.5 6.3 1.3 2 0.8 3.9 2.1 5.4 3.6 1.6 1.5 2.8 3.4 3.6 5.4 0.9 2 1.3 4.2 1.3 6.3z"/>
					<path id="Path_3599" class="s83" d="m250.2 33.1c0 6.7-4 12.7-10.2 15.3-6.2 2.6-13.3 1.1-18-3.6-4.7-4.7-6.1-11.8-3.6-18 2.6-6.2 8.6-10.2 15.3-10.2 2.2 0 4.3 0.4 6.3 1.3 2 0.8 3.8 2 5.4 3.5 1.5 1.6 2.7 3.4 3.6 5.4 0.8 2 1.2 4.2 1.2 6.3z"/>
					<path id="Path_3600" class="s82" d="m250.1 33.1c0 6.7-4 12.7-10.1 15.2-6.2 2.6-13.2 1.2-17.9-3.5-4.8-4.7-6.2-11.8-3.6-18 2.5-6.1 8.5-10.1 15.2-10.1 2.1 0 4.3 0.4 6.3 1.2 2 0.9 3.8 2.1 5.3 3.6 1.5 1.5 2.8 3.3 3.6 5.3 0.8 2 1.2 4.2 1.2 6.3z"/>
					<path id="Path_3601" class="s81" d="m250.1 33.1c0 6.7-4 12.6-10.1 15.2-6.2 2.5-13.2 1.1-17.9-3.6-4.7-4.7-6.1-11.7-3.5-17.8 2.5-6.2 8.5-10.1 15.1-10.1 2.1 0 4.3 0.4 6.3 1.2 1.9 0.8 3.7 2 5.3 3.5 1.5 1.6 2.7 3.4 3.5 5.4 0.8 2 1.3 4.1 1.3 6.2z"/>
					<path id="Path_3602" class="s80" d="m250 33.1c0 6.6-4 12.6-10.1 15.1-6.1 2.5-13.1 1.1-17.7-3.5-4.7-4.7-6.1-11.7-3.6-17.8 2.5-6.1 8.5-10.1 15.1-10.1 2.1 0 4.2 0.4 6.2 1.3 2 0.8 3.8 2 5.3 3.5 1.5 1.5 2.7 3.3 3.6 5.3 0.8 2 1.2 4.1 1.2 6.2z"/>
					<path id="Path_3603" class="s79" d="m249.9 33.1c0 6.6-3.9 12.5-10 15-6.1 2.6-13.1 1.2-17.7-3.5-4.6-4.6-6-11.6-3.5-17.7 2.5-6 8.4-10 15-10 2.1 0 4.2 0.4 6.2 1.2 2 0.8 3.8 2 5.3 3.6 1.5 1.5 2.7 3.2 3.5 5.2 0.8 2 1.2 4.1 1.2 6.2z"/>
					<path id="Path_3604" class="s78" d="m249.9 33.1c0 6.6-4 12.5-10 15-6.1 2.5-13 1.1-17.6-3.5-4.7-4.7-6.1-11.6-3.5-17.7 2.5-6 8.3-9.9 14.9-9.9 2.1 0 4.2 0.4 6.2 1.2 1.9 0.8 3.7 2 5.2 3.5 1.5 1.5 2.7 3.3 3.5 5.2 0.8 2 1.3 4.1 1.3 6.2z"/>
					<path id="Path_3605" class="s240" d="m249.8 33.1c0 6.5-3.9 12.4-10 14.9-6 2.5-12.9 1.1-17.5-3.5-4.6-4.6-6-11.5-3.5-17.5 2.5-6 8.4-10 14.9-10 2.1 0 4.2 0.5 6.1 1.3 2 0.8 3.8 2 5.3 3.4 1.5 1.5 2.6 3.3 3.5 5.3 0.8 1.9 1.2 4 1.2 6.1z"/>
					<path id="Path_3606" class="s76" d="m249.7 33.1c0 6.5-3.9 12.4-9.9 14.8-6 2.5-12.9 1.1-17.4-3.4-4.6-4.6-6-11.5-3.5-17.5 2.5-6 8.3-9.9 14.8-9.9 2.1 0 4.2 0.4 6.1 1.2 2 0.8 3.7 2 5.2 3.5 1.5 1.5 2.7 3.3 3.5 5.2 0.8 1.9 1.2 4 1.2 6.1z"/>
					<path id="Path_3607" class="s75" d="m249.6 33.1c0 6.5-3.8 12.3-9.8 14.8-6 2.4-12.8 1.1-17.4-3.5-4.6-4.5-5.9-11.4-3.5-17.4 2.5-5.9 8.3-9.8 14.8-9.8 2.1 0 4.2 0.4 6.1 1.2 1.9 0.8 3.7 2 5.2 3.5 1.4 1.4 2.6 3.2 3.4 5.1 0.8 2 1.2 4 1.2 6.1z"/>
					<path id="Path_3608" class="s74" d="m249.6 33.1c0 6.5-3.9 12.2-9.8 14.7-6 2.5-12.8 1.1-17.3-3.4-4.6-4.6-5.9-11.4-3.5-17.3 2.5-6 8.3-9.9 14.7-9.9 2.1 0.1 4.1 0.5 6.1 1.3 1.9 0.8 3.6 1.9 5.1 3.4 1.5 1.5 2.7 3.2 3.5 5.2 0.8 1.9 1.2 3.9 1.2 6z"/>
					<path id="Path_3609" class="s241" d="m249.5 33.1c0 6.4-3.9 12.2-9.8 14.6-5.9 2.5-12.7 1.1-17.2-3.4-4.5-4.5-5.9-11.3-3.4-17.2 2.4-5.9 8.2-9.8 14.6-9.8 2.1 0 4.1 0.4 6 1.2 2 0.8 3.7 2 5.2 3.5 1.4 1.4 2.6 3.2 3.4 5.1 0.8 1.9 1.2 4 1.2 6z"/>
					<path id="Path_3610" class="s73" d="m249.4 33.1c0 6.4-3.8 12.1-9.7 14.6-5.9 2.4-12.6 1.1-17.1-3.4-4.5-4.5-5.9-11.3-3.5-17.2 2.5-5.9 8.2-9.7 14.6-9.7 2.1 0 4.1 0.4 6 1.2 1.9 0.8 3.7 1.9 5.1 3.4 1.5 1.5 2.6 3.2 3.4 5.1 0.8 1.9 1.2 4 1.2 6z"/>
					<path id="Path_3611" class="s72" d="m249.4 33.1c0 6.4-3.9 12.1-9.7 14.5-5.9 2.4-12.6 1.1-17.1-3.4-4.5-4.5-5.8-11.2-3.4-17.1 2.4-5.8 8.2-9.6 14.5-9.6 2 0 4.1 0.4 6 1.2 1.9 0.7 3.6 1.9 5.1 3.4 1.4 1.4 2.6 3.1 3.4 5 0.7 1.9 1.2 4 1.2 6z"/>
					<path id="Path_3612" class="s71" d="m249.3 33.1c0 6.3-3.8 12-9.6 14.4-5.9 2.5-12.6 1.1-17-3.3-4.5-4.5-5.8-11.2-3.4-17 2.4-5.9 8.1-9.7 14.4-9.7 2 0 4.1 0.4 6 1.2 1.8 0.8 3.6 2 5 3.4 1.5 1.5 2.6 3.2 3.4 5.1 0.8 1.9 1.2 3.9 1.2 5.9z"/>
					<path id="Path_3613" class="s70" d="m249.2 33.1c0 6.3-3.8 12-9.6 14.4-5.8 2.4-12.5 1.1-16.9-3.4-4.4-4.4-5.8-11.1-3.4-16.9 2.4-5.8 8.1-9.6 14.4-9.6 2 0 4 0.4 5.9 1.2 1.9 0.8 3.6 1.9 5.1 3.4 1.4 1.4 2.5 3.1 3.3 5 0.8 1.9 1.2 3.9 1.2 5.9z"/>
					<path id="Path_3614" class="s69" d="m249.1 33.1c0 6.3-3.7 11.9-9.5 14.3-5.8 2.4-12.4 1.1-16.8-3.3-4.5-4.5-5.8-11.1-3.4-16.9 2.4-5.8 8-9.5 14.3-9.5 2 0 4 0.4 5.9 1.2 1.9 0.7 3.6 1.9 5 3.3 1.4 1.4 2.6 3.1 3.4 5 0.7 1.9 1.1 3.9 1.1 5.9z"/>
					<path id="Path_3615" class="s68" d="m249.1 33.1c0 6.3-3.8 11.9-9.5 14.2-5.8 2.4-12.4 1.1-16.8-3.3-4.4-4.4-5.7-11-3.3-16.8 2.4-5.7 8-9.5 14.2-9.5 2 0 4 0.4 5.9 1.2 1.8 0.8 3.5 1.9 5 3.4 1.4 1.4 2.5 3.1 3.3 4.9 0.8 1.9 1.2 3.9 1.2 5.9z"/>
					<path id="Path_3616" class="s67" d="m249 33.1c0 6.2-3.7 11.8-9.5 14.2-5.7 2.3-12.3 1-16.6-3.3-4.4-4.4-5.7-11-3.4-16.7 2.4-5.7 8-9.5 14.2-9.5 2 0 4 0.4 5.8 1.2 1.9 0.8 3.6 1.9 5 3.3 1.4 1.4 2.6 3.1 3.3 5 0.8 1.8 1.2 3.8 1.2 5.8z"/>
					<path id="Path_3617" class="s66" d="m248.9 33.1c0 6.2-3.7 11.8-9.4 14.1-5.7 2.4-12.2 1.1-16.6-3.3-4.3-4.3-5.7-10.9-3.3-16.6 2.4-5.7 7.9-9.4 14.1-9.4 2 0 4 0.4 5.8 1.2 1.9 0.7 3.5 1.8 5 3.3 1.4 1.4 2.5 3.1 3.3 4.9 0.7 1.8 1.1 3.8 1.1 5.8z"/>
					<path id="Path_3618" class="s65" d="m248.9 33.1c0 6.2-3.7 11.7-9.4 14-5.7 2.4-12.2 1.1-16.5-3.2-4.4-4.4-5.7-10.9-3.3-16.6 2.3-5.6 7.9-9.3 14-9.3 2 0 4 0.4 5.8 1.1 1.8 0.8 3.5 1.9 4.9 3.3 1.4 1.4 2.5 3.1 3.3 4.9 0.8 1.9 1.2 3.8 1.2 5.8z"/>
					<path id="Path_3619" class="s64" d="m248.8 33.1c0 6.1-3.7 11.6-9.3 14-5.7 2.3-12.2 1-16.5-3.3-4.3-4.3-5.6-10.8-3.3-16.4 2.4-5.7 7.9-9.4 14-9.4 2 0 3.9 0.4 5.8 1.2 1.8 0.7 3.5 1.9 4.9 3.3 1.4 1.4 2.5 3 3.2 4.9 0.8 1.8 1.2 3.8 1.2 5.7z"/>
					<path id="Path_3620" class="s63" d="m248.7 33.1c0 6.1-3.6 11.6-9.3 13.9-5.6 2.3-12 1.1-16.3-3.2-4.3-4.3-5.6-10.8-3.3-16.4 2.3-5.6 7.8-9.3 13.9-9.3 2 0 3.9 0.4 5.7 1.2 1.9 0.7 3.5 1.8 4.9 3.2 1.4 1.4 2.5 3.1 3.3 4.9 0.7 1.8 1.1 3.8 1.1 5.7z"/>
					<path id="Path_3621" class="s242" d="m248.6 33.1c0 6.1-3.6 11.5-9.2 13.8-5.6 2.4-12 1.1-16.3-3.2-4.3-4.3-5.5-10.7-3.2-16.3 2.3-5.6 7.7-9.2 13.8-9.2 1.9 0 3.9 0.4 5.7 1.1 1.8 0.8 3.5 1.9 4.9 3.3 1.3 1.3 2.4 3 3.2 4.8 0.8 1.8 1.1 3.8 1.1 5.7z"/>
					<path id="Path_3622" class="s243" d="m248.6 33.1c0 6.1-3.7 11.5-9.2 13.8-5.6 2.3-12 1-16.2-3.2-4.3-4.3-5.6-10.7-3.3-16.3 2.3-5.5 7.8-9.2 13.8-9.2 1.9 0 3.9 0.4 5.7 1.2 1.8 0.7 3.4 1.8 4.8 3.2 1.4 1.4 2.5 3 3.2 4.8 0.8 1.8 1.2 3.8 1.2 5.7z"/>
					<path id="Path_3623" class="s60" d="m248.5 33.1c0 6-3.6 11.4-9.1 13.7-5.6 2.3-11.9 1-16.2-3.2-4.2-4.2-5.5-10.6-3.2-16.1 2.3-5.6 7.7-9.2 13.7-9.2 1.9 0 3.9 0.4 5.7 1.1 1.8 0.8 3.4 1.9 4.8 3.3 1.3 1.3 2.4 3 3.2 4.8 0.7 1.8 1.1 3.7 1.1 5.6z"/>
					<path id="Path_3624" class="s244" d="m248.4 33.1c0 6-3.6 11.4-9.1 13.7-5.5 2.2-11.8 1-16-3.2-4.2-4.3-5.5-10.6-3.2-16.1 2.3-5.5 7.6-9.1 13.6-9.1 1.9 0 3.8 0.4 5.6 1.1 1.8 0.8 3.4 1.8 4.8 3.2 1.4 1.4 2.5 3 3.2 4.8 0.7 1.8 1.1 3.7 1.1 5.6z"/>
					<path id="Path_3625" class="s245" d="m248.4 33.1c0 6-3.6 11.3-9.1 13.6-5.5 2.3-11.8 1-16-3.2-4.2-4.2-5.4-10.5-3.2-16 2.3-5.5 7.7-9 13.6-9 1.9 0 3.8 0.3 5.6 1.1 1.8 0.7 3.4 1.8 4.8 3.2 1.3 1.3 2.4 2.9 3.1 4.7 0.8 1.8 1.2 3.7 1.2 5.6z"/>
					<path id="Path_3626" class="s246" d="m248.3 33.1c0 5.9-3.6 11.3-9 13.5-5.5 2.3-11.8 1-15.9-3.1-4.2-4.2-5.5-10.5-3.2-16 2.3-5.4 7.6-9 13.5-9 1.9 0 3.8 0.4 5.6 1.1 1.7 0.8 3.4 1.9 4.7 3.2 1.4 1.4 2.4 3 3.2 4.7 0.7 1.8 1.1 3.7 1.1 5.6z"/>
					<path id="Path_3627" class="s247" d="m248.2 33.1c0 5.9-3.5 11.2-9 13.5-5.4 2.2-11.6 1-15.8-3.2-4.1-4.2-5.4-10.4-3.1-15.8 2.2-5.5 7.5-9 13.4-9 1.9 0 3.8 0.4 5.5 1.1 1.8 0.7 3.4 1.8 4.8 3.2 1.3 1.3 2.4 2.9 3.1 4.7 0.7 1.7 1.1 3.6 1.1 5.5z"/>
					<path id="Path_3628" class="s54" d="m248.1 33.1c0 5.9-3.5 11.1-8.9 13.4-5.4 2.2-11.6 1-15.7-3.1-4.2-4.2-5.4-10.4-3.2-15.8 2.3-5.4 7.5-8.9 13.4-8.9 1.9 0 3.8 0.4 5.5 1.1 1.8 0.7 3.4 1.8 4.7 3.1 1.4 1.4 2.4 2.9 3.1 4.7 0.8 1.8 1.1 3.6 1.1 5.5z"/>
					<path id="Path_3629" class="s53" d="m248.1 33.1c0 5.9-3.5 11.1-8.9 13.3-5.4 2.2-11.6 1-15.7-3.1-4.1-4.1-5.3-10.3-3.1-15.7 2.2-5.3 7.5-8.9 13.3-8.9 1.9 0 3.7 0.4 5.5 1.1 1.7 0.8 3.3 1.8 4.7 3.2 1.3 1.3 2.4 2.9 3.1 4.6 0.7 1.8 1.1 3.6 1.1 5.5z"/>
					<path id="Path_3630" class="s52" d="m248 33.1c0 5.8-3.5 11-8.8 13.3-5.4 2.2-11.5 0.9-15.6-3.1-4.1-4.1-5.3-10.3-3.1-15.6 2.2-5.4 7.4-8.9 13.2-8.9 1.9 0 3.7 0.4 5.5 1.1 1.7 0.7 3.3 1.8 4.6 3.1 1.3 1.3 2.4 2.9 3.1 4.7 0.7 1.7 1.1 3.6 1.1 5.4z"/>
					<path id="Path_3631" class="s51" d="m247.9 33.1c0 5.8-3.4 11-8.8 13.2-5.3 2.2-11.4 1-15.5-3.1-4.1-4.1-5.3-10.2-3.1-15.5 2.2-5.3 7.4-8.8 13.2-8.8 1.9 0 3.7 0.4 5.4 1.1 1.8 0.7 3.3 1.7 4.7 3.1 1.3 1.3 2.3 2.9 3 4.6 0.8 1.7 1.1 3.6 1.1 5.4z"/>
					<path id="Path_3632" class="s50" d="m247.9 33.1c0 5.8-3.5 10.9-8.8 13.1-5.3 2.2-11.4 1-15.4-3-4.1-4.1-5.3-10.2-3.1-15.5 2.2-5.3 7.4-8.7 13.1-8.7 1.8 0 3.7 0.3 5.4 1 1.7 0.8 3.3 1.8 4.6 3.1 1.3 1.3 2.4 2.9 3.1 4.6 0.7 1.7 1.1 3.6 1.1 5.4z"/>
					<path id="Path_3633" class="s49" d="m247.8 33.1c0 5.7-3.4 10.9-8.7 13.1-5.3 2.1-11.3 0.9-15.4-3.1-4-4-5.2-10.1-3-15.4 2.1-5.2 7.3-8.7 13-8.7 1.8 0 3.7 0.4 5.4 1.1 1.7 0.7 3.2 1.8 4.6 3.1 1.3 1.3 2.3 2.8 3 4.5 0.7 1.7 1.1 3.6 1.1 5.4z"/>
					<path id="Path_3634" class="s48" d="m247.7 33.1c0 5.7-3.4 10.8-8.6 13-5.3 2.2-11.3 1-15.3-3-4-4.1-5.2-10.1-3.1-15.3 2.2-5.3 7.3-8.7 13-8.7 1.8 0 3.7 0.4 5.4 1.1 1.7 0.7 3.2 1.7 4.5 3 1.3 1.3 2.3 2.9 3 4.6 0.8 1.7 1.1 3.5 1.1 5.3z"/>
					<path id="Path_3635" class="s47" d="m247.6 33.1c0 5.7-3.4 10.8-8.6 12.9-5.2 2.2-11.2 1-15.2-3-4-4-5.2-10-3-15.2 2.2-5.2 7.2-8.6 12.9-8.6 1.8 0 3.6 0.3 5.3 1 1.7 0.7 3.3 1.8 4.6 3.1 1.3 1.3 2.3 2.8 3 4.5 0.7 1.7 1 3.5 1 5.3z"/>
					<path id="Path_3636" class="s46" d="m247.6 33.1c0 5.6-3.4 10.7-8.6 12.9-5.2 2.1-11.2 0.9-15.1-3-4-4-5.2-10-3-15.2 2.1-5.2 7.2-8.6 12.8-8.6 1.8 0 3.6 0.4 5.3 1.1 1.7 0.7 3.2 1.7 4.5 3 1.3 1.3 2.3 2.8 3 4.5 0.7 1.7 1.1 3.5 1.1 5.3z"/>
					<path id="Path_3637" class="s248" d="m247.5 33.1c0 5.6-3.4 10.7-8.5 12.8-5.2 2.1-11.1 1-15.1-3-3.9-4-5.1-9.9-3-15.1 2.2-5.1 7.2-8.5 12.8-8.5 1.8 0 3.6 0.4 5.3 1.1 1.6 0.7 3.2 1.7 4.5 3 1.2 1.2 2.3 2.8 2.9 4.4 0.7 1.7 1.1 3.5 1.1 5.3z"/>
					<path id="Path_3638" class="s43" d="m247.4 33.1c0 5.6-3.3 10.6-8.5 12.7-5.1 2.2-11 1-14.9-3-4-3.9-5.1-9.8-3-14.9 2.1-5.2 7.1-8.5 12.7-8.5 1.8 0 3.6 0.3 5.2 1 1.7 0.7 3.2 1.7 4.5 3 1.3 1.3 2.3 2.8 3 4.5 0.7 1.6 1 3.4 1 5.2z"/>
					<path id="Path_3639" class="s42" d="m247.4 33.1c0 5.6-3.4 10.5-8.5 12.7-5.1 2.1-11 0.9-14.9-3-3.9-3.9-5.1-9.8-2.9-14.9 2.1-5.1 7.1-8.4 12.6-8.4 1.8 0 3.6 0.3 5.2 1 1.7 0.7 3.2 1.7 4.5 3 1.2 1.2 2.2 2.7 2.9 4.4 0.7 1.7 1.1 3.4 1.1 5.2z"/>
					<path id="Path_3640" class="s41" d="m247.3 33.1c0 5.5-3.3 10.5-8.4 12.6-5.1 2.1-10.9 0.9-14.8-3-3.9-3.8-5.1-9.7-3-14.8 2.1-5.1 7.1-8.4 12.6-8.4 1.8 0 3.5 0.4 5.2 1.1 1.6 0.7 3.1 1.7 4.4 2.9 1.3 1.3 2.3 2.8 2.9 4.4 0.7 1.7 1.1 3.4 1.1 5.2z"/>
					<path id="Path_3641" class="s40" d="m247.2 33.1c0 5.5-3.3 10.4-8.3 12.5-5.1 2.1-10.9 1-14.8-2.9-3.8-3.9-5-9.7-2.9-14.7 2.1-5.1 7-8.4 12.5-8.4 1.8 0 3.5 0.4 5.2 1 1.6 0.7 3.1 1.7 4.4 3 1.2 1.2 2.2 2.7 2.9 4.4 0.7 1.6 1 3.4 1 5.1z"/>
					<path id="Path_3642" class="s39" d="m247.1 33.1c0 5.5-3.2 10.4-8.3 12.5-5 2-10.8 0.9-14.6-3-3.9-3.8-5-9.6-2.9-14.6 2-5 6.9-8.3 12.4-8.3 1.8 0 3.5 0.3 5.1 1 1.7 0.7 3.2 1.7 4.4 2.9 1.3 1.3 2.2 2.8 2.9 4.4 0.7 1.6 1 3.4 1 5.1z"/>
					<path id="Path_3643" class="s38" d="m247.1 33.1c0 5.4-3.3 10.3-8.3 12.4-5 2.1-10.7 0.9-14.6-2.9-3.8-3.8-4.9-9.6-2.9-14.6 2.1-5 7-8.3 12.4-8.3 1.7 0 3.5 0.4 5.1 1.1 1.6 0.6 3.1 1.6 4.4 2.9 1.2 1.2 2.2 2.7 2.9 4.3 0.6 1.6 1 3.4 1 5.1z"/>
					<path id="Path_3644" class="s37" d="m247 33.1c0 5.4-3.2 10.3-8.2 12.3-5 2.1-10.7 1-14.5-2.9-3.8-3.8-5-9.5-2.9-14.5 2-4.9 6.9-8.2 12.3-8.2 1.7 0 3.5 0.4 5.1 1 1.6 0.7 3.1 1.7 4.3 2.9 1.2 1.3 2.2 2.7 2.9 4.3 0.7 1.7 1 3.4 1 5.1z"/>
					<path id="Path_3645" class="s35" d="m246.9 33.1c0 5.4-3.2 10.2-8.1 12.3-5 2-10.7 0.9-14.5-2.9-3.8-3.8-4.9-9.5-2.8-14.4 2-5 6.8-8.2 12.2-8.2 1.7 0 3.4 0.3 5.1 1 1.6 0.7 3 1.6 4.2 2.9 1.3 1.2 2.3 2.7 2.9 4.3 0.7 1.6 1 3.3 1 5z"/>
					<path id="Path_3646" class="s34" d="m246.9 33.1c0 5.4-3.3 10.2-8.2 12.2-4.9 2-10.6 0.9-14.3-2.9-3.8-3.7-4.9-9.4-2.9-14.3 2.1-4.9 6.9-8.1 12.2-8.1 1.7 0 3.4 0.3 5 1 1.6 0.6 3.1 1.6 4.3 2.8 1.2 1.2 2.2 2.7 2.9 4.3 0.6 1.6 1 3.3 1 5z"/>
					<path id="Path_3647" class="s32" d="m246.8 33.1c0 5.3-3.2 10.1-8.1 12.1-4.9 2.1-10.5 0.9-14.3-2.8-3.7-3.8-4.8-9.4-2.8-14.3 2-4.9 6.8-8.1 12.1-8.1 1.7 0 3.4 0.4 5 1 1.6 0.7 3 1.7 4.3 2.9 1.2 1.2 2.1 2.6 2.8 4.2 0.6 1.6 1 3.3 1 5z"/>
					<path id="Path_3648" class="s31" d="m246.7 33.1c0 5.3-3.2 10.1-8 12.1-4.9 2-10.5 0.9-14.2-2.9-3.7-3.7-4.9-9.3-2.8-14.2 2-4.8 6.7-8 12-8 1.7 0 3.4 0.3 5 1 1.6 0.7 3 1.6 4.2 2.8 1.2 1.2 2.2 2.7 2.8 4.2 0.7 1.6 1 3.3 1 5z"/>
					<path id="Path_3649" class="s30" d="m246.6 33.1c0 5.3-3.1 10-8 12-4.8 2-10.4 0.9-14.1-2.8-3.7-3.7-4.8-9.3-2.8-14.1 2-4.9 6.7-8 12-8 1.7 0 3.4 0.3 4.9 1 1.6 0.6 3 1.6 4.2 2.8 1.3 1.2 2.2 2.6 2.9 4.2 0.6 1.5 0.9 3.2 0.9 4.9z"/>
					<path id="Path_3650" class="s28" d="m246.6 33.1c0 5.2-3.2 9.9-8 11.9-4.8 2-10.3 0.9-14-2.8-3.7-3.6-4.8-9.2-2.8-14 2-4.8 6.7-8 11.9-8 1.7 0 3.4 0.4 4.9 1 1.6 0.7 3 1.6 4.2 2.8 1.2 1.2 2.1 2.6 2.8 4.2 0.6 1.6 1 3.2 1 4.9z"/>
					<path id="Path_3651" class="s26" d="m246.5 33.1c0 5.2-3.1 9.9-7.9 11.9-4.8 2-10.3 0.9-14-2.8-3.6-3.7-4.7-9.2-2.7-14 1.9-4.8 6.6-7.9 11.8-7.9 1.7 0 3.3 0.4 4.9 1 1.5 0.6 3 1.6 4.1 2.8 1.2 1.2 2.2 2.6 2.8 4.1 0.7 1.6 1 3.2 1 4.9z"/>
					<path id="Path_3652" class="s25" d="m246.4 33.1c0 5.2-3.1 9.8-7.8 11.8-4.8 2-10.3 0.9-13.9-2.8-3.7-3.6-4.8-9.1-2.8-13.8 2-4.8 6.6-7.9 11.8-7.9 1.7 0 3.3 0.3 4.9 1 1.5 0.6 2.9 1.5 4.1 2.7 1.2 1.2 2.1 2.6 2.8 4.2 0.6 1.5 0.9 3.2 0.9 4.8z"/>
					<path id="Path_3653" class="s24" d="m246.4 33.1c0 5.2-3.1 9.8-7.9 11.7-4.7 2-10.1 0.9-13.8-2.7-3.6-3.6-4.7-9.1-2.7-13.8 1.9-4.8 6.6-7.8 11.7-7.8 1.7 0 3.3 0.3 4.8 0.9 1.6 0.7 3 1.6 4.1 2.8 1.2 1.1 2.2 2.5 2.8 4.1 0.6 1.5 1 3.2 1 4.8z"/>
					<path id="Path_3654" class="s23" d="m246.3 33.1c0 5.1-3.1 9.7-7.8 11.7-4.7 1.9-10.1 0.8-13.7-2.8-3.6-3.6-4.7-9-2.8-13.7 2-4.7 6.6-7.8 11.7-7.8 1.6 0 3.3 0.4 4.8 1 1.5 0.6 2.9 1.6 4.1 2.7 1.2 1.2 2.1 2.6 2.7 4.1 0.7 1.5 1 3.2 1 4.8z"/>
					<path id="Path_3655" class="s22" d="m246.2 33.1c0 5.1-3 9.7-7.7 11.6-4.7 1.9-10.1 0.9-13.7-2.7-3.6-3.6-4.6-9-2.7-13.7 2-4.6 6.5-7.7 11.6-7.7 1.6 0 3.3 0.3 4.8 1 1.5 0.6 2.9 1.5 4 2.7 1.2 1.1 2.1 2.5 2.8 4 0.6 1.6 0.9 3.2 0.9 4.8z"/>
					<path id="Path_3656" class="s21" d="m246.1 33.1c0 5.1-3 9.6-7.6 11.5-4.7 2-10.1 0.9-13.6-2.7-3.6-3.5-4.6-8.9-2.7-13.5 1.9-4.7 6.4-7.7 11.5-7.7 1.6 0 3.2 0.3 4.8 0.9 1.5 0.6 2.8 1.6 4 2.7 1.2 1.2 2.1 2.6 2.7 4.1 0.6 1.5 0.9 3.1 0.9 4.7z"/>
					<path id="Path_3657" class="s20" d="m246.1 33.1c0 5-3 9.6-7.7 11.5-4.6 1.9-9.9 0.8-13.5-2.7-3.5-3.6-4.6-8.9-2.7-13.5 2-4.6 6.5-7.7 11.5-7.7 1.6 0 3.2 0.4 4.7 1 1.5 0.6 2.9 1.5 4 2.7 1.2 1.1 2.1 2.5 2.7 4 0.7 1.5 1 3.1 1 4.7z"/>
					<path id="Path_3658" class="s18" d="m246 33.1c0 5-3 9.5-7.6 11.4-4.6 1.9-9.9 0.9-13.4-2.7-3.5-3.5-4.6-8.8-2.7-13.4 1.9-4.6 6.4-7.6 11.4-7.6 1.6 0 3.2 0.3 4.7 1 1.5 0.6 2.9 1.5 4 2.6 1.1 1.2 2 2.5 2.7 4 0.6 1.5 0.9 3.1 0.9 4.7z"/>
					<path id="Path_3659" class="s16" d="m245.9 33.1c0 5-3 9.4-7.5 11.3-4.6 1.9-9.9 0.9-13.4-2.6-3.5-3.5-4.5-8.8-2.6-13.4 1.9-4.5 6.3-7.5 11.3-7.5 1.6 0 3.2 0.3 4.7 0.9 1.5 0.6 2.8 1.5 3.9 2.7 1.2 1.1 2.1 2.5 2.7 3.9 0.6 1.5 0.9 3.1 0.9 4.7z"/>
					<path id="Path_3660" class="s15" d="m245.9 33.1c0 5-3 9.4-7.6 11.3-4.5 1.9-9.7 0.8-13.2-2.7-3.5-3.4-4.5-8.7-2.7-13.2 1.9-4.6 6.4-7.5 11.3-7.5 1.6 0 3.2 0.3 4.6 0.9 1.5 0.6 2.9 1.5 4 2.6 1.1 1.2 2 2.5 2.6 4 0.6 1.5 1 3 1 4.6z"/>
					<path id="Path_3661" class="s13" d="m245.8 33.1c0 4.9-3 9.3-7.5 11.2-4.5 1.9-9.7 0.8-13.2-2.6-3.4-3.5-4.5-8.7-2.6-13.2 1.9-4.5 6.3-7.5 11.2-7.5 1.6 0 3.2 0.3 4.6 1 1.5 0.6 2.8 1.5 3.9 2.6 1.2 1.1 2.1 2.4 2.7 3.9 0.6 1.5 0.9 3 0.9 4.6z"/>
					<path id="Path_3662" class="s11" d="m245.7 33.1c0 4.9-2.9 9.3-7.4 11.1-4.5 1.9-9.7 0.9-13.1-2.6-3.5-3.4-4.5-8.6-2.6-13.1 1.8-4.5 6.2-7.4 11.1-7.4 1.6 0 3.1 0.3 4.6 0.9 1.4 0.6 2.8 1.5 3.9 2.6 1.1 1.1 2 2.5 2.6 3.9 0.6 1.5 0.9 3.1 0.9 4.6z"/>
					<path id="Path_3663" class="s9" d="m245.6 33.1c0 4.9-2.9 9.2-7.3 11.1-4.5 1.8-9.6 0.8-13.1-2.6-3.4-3.4-4.4-8.6-2.6-13 1.9-4.5 6.3-7.4 11.1-7.4 1.6 0 3.1 0.3 4.6 0.9 1.4 0.6 2.7 1.5 3.8 2.6 1.2 1.1 2 2.4 2.6 3.9 0.6 1.4 0.9 3 0.9 4.5z"/>
					<path id="Path_3664" class="s7" d="m245.6 33.1c0 4.8-2.9 9.2-7.4 11-4.4 1.9-9.5 0.8-12.9-2.6-3.4-3.4-4.4-8.5-2.6-12.9 1.8-4.5 6.2-7.4 11-7.4 1.5 0 3.1 0.4 4.5 1 1.5 0.5 2.8 1.4 3.9 2.5 1.1 1.1 2 2.4 2.6 3.9 0.6 1.4 0.9 3 0.9 4.5z"/>
					<path id="Path_3665" class="s5" d="m245.5 33.1c0 4.8-2.9 9.1-7.3 10.9-4.4 1.9-9.5 0.9-12.9-2.5-3.3-3.4-4.4-8.5-2.5-12.9 1.8-4.4 6.1-7.3 10.9-7.3 1.5 0 3.1 0.3 4.5 0.9 1.4 0.6 2.7 1.5 3.8 2.6 1.1 1.1 2 2.4 2.6 3.8 0.6 1.4 0.9 3 0.9 4.5z"/>
					<path id="Path_3666" class="s3" d="m245.4 33.1c0 4.8-2.8 9.1-7.2 10.9-4.4 1.8-9.5 0.8-12.8-2.6-3.4-3.3-4.4-8.4-2.6-12.8 1.9-4.4 6.1-7.2 10.9-7.2 1.5 0 3.1 0.3 4.5 0.9 1.4 0.6 2.7 1.4 3.8 2.5 1.1 1.1 1.9 2.4 2.5 3.8 0.6 1.5 0.9 3 0.9 4.5z"/>
				</g>
			</g>
		</g>
		<g id="Group_546">
			<g id="Clip-Path: Group_545" clip-path="url(#cp6)">
				<g id="Group_545">
					<path id="Path_3668" fill-rule="evenodd" class="s0" d="m190.9 63.7h-2.8l-0.7 1.5h-1l3.2-6.7 3 6.7h-1.1zm-0.4-0.9l-0.9-2.1-1 2.1z"/>
					<path id="Path_3669" class="s0" d="m195.7 65.2v-6.8l4.7 4.9v-4.4h0.9v6.7l-4.6-4.8v4.4z"/>
					<path id="Path_3670" class="s0" d="m205.2 65.2v-6.8l4.6 4.9v-4.4h1v6.7l-4.6-4.8v4.4z"/>
					<path id="Rectangle_306" class="s0" d="m214.7 58.9h1v6.3h-1z"/>
					<path id="Path_3671" class="s0" d="m219.9 58.9l1.8 4.4 1.7-4.4h1.1l-2.8 6.7-2.9-6.7z"/>
					<path id="Path_3672" class="s0" d="m231.2 59.8h-2.6v1.6h2.5v0.9h-2.5v2h2.6v0.9h-3.5v-6.3h3.5z"/>
					<path id="Path_3673" fill-rule="evenodd" class="s0" d="m235.9 58.9q0.2 0 0.5 0 0.2 0 0.4 0 0.2 0.1 0.4 0.2 0.2 0 0.4 0.1 0.2 0.2 0.3 0.3 0.2 0.2 0.3 0.4 0.1 0.2 0.1 0.4 0.1 0.2 0.1 0.4 0 0.4-0.1 0.6-0.1 0.3-0.3 0.6-0.2 0.2-0.5 0.4-0.3 0.2-0.6 0.2l2 2.7h-1.1l-1.9-2.6h-0.1v2.6h-1v-6.3zm-0.2 2.9h0.3c0.3 0 1.4 0 1.4-1 0-0.9-0.9-1-1.3-1h-0.4z"/>
					<path id="Path_3674" class="s0" d="m245 60.3q-0.1-0.2-0.2-0.3-0.1-0.1-0.2-0.2-0.1-0.1-0.3-0.1-0.1-0.1-0.3 0-0.1-0.1-0.3 0-0.2 0-0.3 0.1-0.1 0.1-0.2 0.3-0.1 0.2-0.1 0.3c0 0.2 0.1 0.5 0.7 0.8l0.7 0.2c1.1 0.5 1.4 1.2 1.4 1.9q0.1 0.4-0.1 0.8-0.1 0.4-0.4 0.7-0.3 0.3-0.7 0.4-0.4 0.2-0.8 0.1-0.2 0.1-0.4 0-0.2 0-0.4-0.1-0.2-0.1-0.4-0.2-0.2-0.1-0.3-0.3-0.1-0.1-0.2-0.3-0.1-0.1-0.2-0.3 0-0.1-0.1-0.3 0-0.2 0-0.3l0.9-0.2q0 0.1 0.1 0.2 0 0.1 0 0.2 0 0.1 0.1 0.2 0 0.1 0.1 0.2 0.1 0.1 0.2 0.1 0.1 0.1 0.2 0.2 0.1 0 0.2 0 0.1 0.1 0.2 0.1 0.2 0 0.4-0.1 0.2-0.1 0.4-0.3 0.1-0.1 0.2-0.3 0.1-0.2 0.1-0.4c0-0.7-0.5-0.9-0.9-1.1l-0.6-0.3c-0.6-0.2-1.3-0.6-1.3-1.6q0-0.3 0.1-0.6 0.2-0.4 0.4-0.6 0.3-0.2 0.6-0.4 0.4-0.1 0.7 0 0.2 0 0.4 0 0.1 0 0.3 0.1 0.2 0 0.3 0.1 0.2 0.1 0.3 0.2 0.1 0.1 0.1 0.1 0.1 0.1 0.2 0.2 0 0.1 0.1 0.2 0 0 0.1 0.1z"/>
					<path id="Path_3675" fill-rule="evenodd" class="s0" d="m253.3 63.7h-2.7l-0.7 1.5h-1.1l3.2-6.7 3 6.7h-1.1zm-0.4-0.9l-0.9-2.1-1 2.1z"/>
					<path id="Path_3676" fill-rule="evenodd" class="s0" d="m259.3 58.9q0.2 0 0.4 0 0.2 0 0.5 0 0.2 0.1 0.4 0.2 0.2 0 0.4 0.1 0.1 0.2 0.3 0.3 0.1 0.2 0.2 0.4 0.1 0.2 0.2 0.4 0 0.2 0 0.4 0 0.4-0.1 0.6-0.1 0.3-0.3 0.6-0.1 0.2-0.4 0.4-0.3 0.2-0.6 0.2l2 2.7h-1.2l-1.8-2.6h-0.2v2.6h-0.9v-6.3zm-0.2 2.9h0.3c0.3 0 1.4 0 1.4-1 0-0.9-0.9-1-1.4-1h-0.3z"/>
					<path id="Path_3677" class="s0" d="m266.9 62.5l-2-3.6h1.1l1.4 2.5 1.5-2.5h1.1l-2.1 3.6v2.7h-1z"/>
					<path id="Path_3678" class="s0" d="m263.6 9.6v4.1h-0.8v-4.1h-1.1v-0.7h3v0.7z"/>
					<path id="Path_3679" class="s0" d="m267.2 10.8h2v-1.9h0.7v4.8h-0.7v-2.2h-2v2.2h-0.8v-4.8h0.8z"/>
				</g>
			</g>
		</g>
	</g>
</svg>