<svg id="TGC" xmlns="http://www.w3.org/2000/svg" xmlns:xlink="http://www.w3.org/1999/xlink" width="153.728" height="68.315" viewBox="0 0 153.728 68.315">
  <defs>
    <clipPath id="clip-path">
      <rect id="Rectangle_405" data-name="Rectangle 405" width="153.728" height="68.315" fill="none"/>
    </clipPath>
  </defs>
  <g id="Group_753" data-name="Group 753" clip-path="url(#clip-path)">
    <path id="Path_8890" data-name="Path 8890" d="M117.754,114.919h-12.44v-2.16h0V102.306s.035-8.8.035-12.933c0-7.308,5.652-11.7,9.376-11.7h27.811v9.266H120.784c-2.753,0-6.322-.414-6.322,5.755v12.958h6.052s7.17-.032,10.343-.032,2.48-4.543,2.48-4.543h-9.225V91.986h18.421v14.456a9.323,9.323,0,0,1-9.333,8.411c-6.964,0-15.447.065-15.447.065" transform="translate(-63.336 -46.713)" fill="#002945"/>
    <path id="Path_8891" data-name="Path 8891" d="M213.626,114.755V112.6h0V102.144s.038-8.8.038-12.935c0-7.307,5.65-11.7,9.375-11.7h27.812v9.267H229.1c-2.754,0-6.322-.412-6.322,5.753v12.962h28.016v9.332Z" transform="translate(-128.477 -46.615)" fill="#002945"/>
    <path id="Path_8892" data-name="Path 8892" d="M37.511,78.942H0v9.266H13.9v27.585h9.489V88.208H37.511Z" transform="translate(0 -47.478)" fill="#002945"/>
    <path id="Path_8893" data-name="Path 8893" d="M331.955,0h-5.4a11.359,11.359,0,0,0-11.345,11.347v5.4l0,.189V28.1H331.6l.358,0A11.361,11.361,0,0,0,343.3,16.747v-5.4A11.36,11.36,0,0,0,331.955,0" transform="translate(-189.573)" fill="#a2a160"/>
  </g>
</svg>
